<svg xmlns="http://www.w3.org/2000/svg" width="37.436" height="50" viewBox="0 0 37.436 50"><defs><style>.a{fill:#3498e5;}</style></defs><path class="a" d="M49.962,10.992,44.782,7.659a1.936,1.936,0,0,0-1.179-.41H33.295V2.736A1.433,1.433,0,0,0,31.859,1.3a1.4,1.4,0,0,0-1.436,1.436V7.3H22.987a2.08,2.08,0,0,0-2.1,2.1v6.769a2.08,2.08,0,0,0,2.1,2.1h7.538v3.333H20.833c-.205,0-.359.051-.513.051h-.256L14.423,25.3a2.125,2.125,0,0,0,.051,3.538l5.179,3.333a1.936,1.936,0,0,0,1.179.41h9.641V49.864A1.433,1.433,0,0,0,31.91,51.3a1.4,1.4,0,0,0,1.436-1.436V32.582h8.1a2.08,2.08,0,0,0,2.1-2.1V23.659a2.08,2.08,0,0,0-2.1-2.1H33.295V18.223H43.6a1.855,1.855,0,0,0,1.179-.359l5.231-3.385a2.077,2.077,0,0,0-.051-3.487ZM40.731,29.762H21.141l-4.205-2.718,4.1-2.615H40.782l-.051,5.333ZM43.449,15.4H23.705V10.069H43.346l4.205,2.718Z" transform="translate(-13.5 -1.3)"/></svg>