<svg xmlns="http://www.w3.org/2000/svg" width="49.796" height="50" viewBox="0 0 49.796 50"><defs><style>.a{fill:#3498e5;}</style></defs><path class="a" d="M21.442,20.316a16.256,16.256,0,1,1,16.25,16.3,15.918,15.918,0,0,1-10.38-3.75l-5,5,.054.054a2.723,2.723,0,0,1,0,3.8L10.844,53.251a2.723,2.723,0,0,1-3.8,0L4.974,51.185a2.723,2.723,0,0,1,0-3.8L16.5,35.8a2.708,2.708,0,0,1,3.75-.054l5-5A16.219,16.219,0,0,1,21.442,20.316Zm16.3,13.261A13.267,13.267,0,0,0,51.007,20.316,13.267,13.267,0,0,0,37.692,7.055a13.381,13.381,0,0,0-9.4,3.859h0a13.288,13.288,0,0,0-3.913,9.4,13.065,13.065,0,0,0,3.913,9.4A13.457,13.457,0,0,0,37.746,33.577Z" transform="translate(-4.2 -4.025)"/><path class="a" d="M45.887,20.223a1.5,1.5,0,0,1,2.12,2.12,7.351,7.351,0,0,0-1.793,7.5A1.427,1.427,0,0,1,44.8,31.8a1.45,1.45,0,0,1-1.413-1.033A10.372,10.372,0,0,1,45.887,20.223Z" transform="translate(-19.678 -11.215)"/></svg>