<svg xmlns="http://www.w3.org/2000/svg" width="51.948" height="50" viewBox="0 0 51.948 50"><defs><style>.a{fill:#3498e5;}</style></defs><path class="a" d="M52.48,23.911c-2.115-5.043-8.406-5.315-13.178-5.26.542-3.742,1.03-8.839,0-11.009A6.6,6.6,0,0,0,33.716,3.9h-.542a6.359,6.359,0,0,0-5.586,3.254C21.948,16.373,17.176,20.6,15.82,21.145a5.626,5.626,0,0,0-.542.217,7.349,7.349,0,0,0-1.085-.108h-6.4a5.752,5.752,0,0,0-5.694,5.8V44.572a5.693,5.693,0,0,0,5.694,5.694h6.4a2.64,2.64,0,0,0,.651-.054c2.278,1.735,6.725,2.874,13.829,3.579A27.932,27.932,0,0,0,31.6,53.9c5.694,0,11.117-1.518,14.913-4.121h0C53.89,44.681,55.788,31.449,52.48,23.911Zm-44.685.325h6.02V47.284H7.794a2.685,2.685,0,0,1-2.711-2.711V27.056A2.744,2.744,0,0,1,7.794,24.236Zm37.039,23.1C41.525,49.616,36.7,50.917,31.6,50.917a20.9,20.9,0,0,1-2.6-.108c-7.918-.759-11.009-2.061-12.2-2.874V23.965h.054c2.495-.922,7.7-6.074,13.341-15.239a3.5,3.5,0,0,1,3.362-1.79A3.685,3.685,0,0,1,36.7,9.052c.6,1.193.38,5.694-.542,10.954l-.271,1.735h2.278c4.013-.108,10.087-.217,11.659,3.416C52.534,31.449,50.8,43.217,44.833,47.338Z" transform="translate(-2.1 -3.9)"/></svg>