<svg xmlns="http://www.w3.org/2000/svg" width="20.16" height="22" viewBox="0 0 20.16 22"><defs><style>.a{fill:#848a8e;opacity:0.7;}</style></defs><path class="a" d="M10,0V4H8l4,4,4-4H14V0M1,2V4H3l3.6,7.59L5.25,14.04A1.933,1.933,0,0,0,5,15a2,2,0,0,0,2,2H19V15H7.42a.254.254,0,0,1-.25-.25l.03-.12L8.1,13h7.45a1.991,1.991,0,0,0,1.75-1.03l3.86-7.01L19.42,4h-.01l-1.1,2-2.76,5H8.53l-.13-.27L6.16,6,5.21,4,4.27,2M7,18a2,2,0,1,0,2,2,2,2,0,0,0-2-2m10,0a2,2,0,1,0,2,2A2,2,0,0,0,17,18Z" transform="translate(-1)"/></svg>