<svg xmlns="http://www.w3.org/2000/svg" width="32" height="32" viewBox="0 0 32 32"><defs><style>.a{fill:#3498E5;}</style></defs><path class="a" d="M26.6,27.6a3.2,3.2,0,1,0,3.2,3.2,3.189,3.189,0,0,0-3.2-3.2M1,2V5.2H4.2L9.96,17.344l-2.176,3.92A3.261,3.261,0,0,0,7.4,22.8,3.2,3.2,0,0,0,10.6,26H29.8V22.8H11.272a.4.4,0,0,1-.4-.4.341.341,0,0,1,.048-.192L12.36,19.6H24.28a3.217,3.217,0,0,0,2.8-1.648L32.808,7.6A2.024,2.024,0,0,0,33,6.8a1.6,1.6,0,0,0-1.6-1.6H7.736L6.232,2M10.6,27.6a3.2,3.2,0,1,0,3.2,3.2A3.189,3.189,0,0,0,10.6,27.6Z" transform="translate(-1 -2)"/></svg>