<svg xmlns="http://www.w3.org/2000/svg" width="45" height="50.059" viewBox="0 0 45 50.059"><defs><style>.a{fill:#3498e5;}</style></defs><path class="a" d="M8.292,1.4h4.86a1.991,1.991,0,0,1,1.986,1.829l.993,11.5h5.748V4.587a2.565,2.565,0,0,1,2.56-2.56H34.889a2.571,2.571,0,0,1,2.456,1.881H47.534a2.565,2.565,0,0,1,2.56,2.56v8.308a1.9,1.9,0,0,1,1.306.679,2.213,2.213,0,0,1,.47,1.62l-3.292,21.79a1.974,1.974,0,0,1-1.986,1.672H17.28a1.991,1.991,0,0,1-1.986-1.829l-.732-8.779L12.368,4.274H8.344A1.461,1.461,0,0,1,6.881,2.811,1.373,1.373,0,0,1,8.292,1.4ZM34.523,4.9H24.7v9.824h9.824V4.9Zm12.7,1.881H37.4v7.943h9.824ZM45.81,37.612,48.841,17.6H16.391l.836,10.555.1,1.306.157,1.881v.052l.523,6.114h27.8Z" transform="translate(-6.881 -1.4)"/><ellipse class="a" cx="4.18" cy="4.18" rx="4.18" ry="4.18" transform="translate(29.575 41.698)"/><ellipse class="a" cx="4.18" cy="4.18" rx="4.18" ry="4.18" transform="translate(12.384 41.698)"/></svg>