<svg xmlns="http://www.w3.org/2000/svg" width="48.52" height="50" viewBox="0 0 48.52 50"><defs><style>.a{fill:#3498e5;}</style></defs><g transform="translate(-3.759 -2.4)"><path class="a" d="M50.945,41.071a1.156,1.156,0,0,0-.053-.42c0-.158-.053-.315-.053-.473a1.866,1.866,0,0,0-.105-.525c0-.105-.053-.158-.053-.263,0-.053,0-.053-.053-.105-.053-.158-.105-.368-.158-.525-.053-.105-.053-.263-.105-.368s-.105-.263-.158-.368A5.449,5.449,0,0,1,50,37.5c-.053-.105-.105-.158-.105-.263a5.729,5.729,0,0,0-.315-.578.051.051,0,0,0-.053-.053c-.053-.053-.053-.105-.105-.105-.105-.21-.263-.368-.368-.578-.053-.105-.158-.158-.21-.263a2.631,2.631,0,0,0-.368-.42l-.368-.368-.21-.21a5.582,5.582,0,0,0-.578-.473c-.053,0-.053-.053-.105-.053a3.522,3.522,0,0,0-.735-.473h0a5.248,5.248,0,0,0-.735-.42.051.051,0,0,1-.053-.053c-.21-.105-.42-.21-.683-.315-.053-.053-.158-.053-.21-.105-.158-.053-.368-.105-.578-.158a3.349,3.349,0,0,0-.368-.105c-.053,0-.105-.053-.158-.053a.894.894,0,0,0-.368-.053c-.105,0-.263-.053-.368-.053a2.557,2.557,0,0,0-.63-.053h-1.05a9.276,9.276,0,0,0-8.666,6.828v.105c0,.105-.053.158-.053.263-.053.158-.053.315-.105.473a.193.193,0,0,1-.053.158c-.053.263-.053.473-.105.735v1.05c0,.263.053.578.053.84V42.8c.053.315.105.578.158.893v.053h0l.158.63c0,.105.053.158.105.263l.158.473a2.56,2.56,0,0,0,.158.368l.158.315a4.88,4.88,0,0,1,.263.525c.053.053.053.105.105.158l.053.053c.105.21.263.368.368.578.053.053.053.105.105.158.158.21.368.42.525.63l.315.315c.105.053.158.158.263.21a2.631,2.631,0,0,1,.42.368c.053.053.158.105.21.158a2.914,2.914,0,0,1,.42.315c.105.053.158.105.263.158a2.932,2.932,0,0,1,.42.263,1.316,1.316,0,0,1,.368.21,2.561,2.561,0,0,0,.368.158,9.065,9.065,0,0,0,1.681.578h0a3.386,3.386,0,0,0,1.05.158h.053a7.039,7.039,0,0,0,1.05.053,10.476,10.476,0,0,0,2.153-.263,9.42,9.42,0,0,0,5.672-3.992h0c.053-.053.053-.105.105-.158a1.573,1.573,0,0,0,.21-.42c.053-.053.053-.105.105-.158a2.815,2.815,0,0,0,.263-.578c0-.053.053-.105.053-.158.105-.21.158-.473.263-.683V44.38a10.6,10.6,0,0,0,.473-2.574V41.6C50.945,41.544,50.945,41.334,50.945,41.071Zm-2.889.735a5.18,5.18,0,0,1-.158,1.261,6.282,6.282,0,0,1-.683,1.733.051.051,0,0,1-.053.053l-.315.473a.051.051,0,0,1-.053.053,5.643,5.643,0,0,1-1.838,1.681,6.383,6.383,0,0,1-1.733.735h0a1.888,1.888,0,0,1-.578.105h-.053a2.154,2.154,0,0,1-.578.053h-.053a5.771,5.771,0,0,1-1.891-.158c-.21-.053-.368-.105-.578-.158h-.053a3.619,3.619,0,0,1-.42-.158c-.053-.053-.105-.053-.21-.105l-.315-.158a1.148,1.148,0,0,1-.263-.158.4.4,0,0,0-.21-.105c-.105-.053-.21-.158-.315-.21-.053-.053-.105-.105-.158-.105-.105-.105-.21-.158-.315-.263l-.158-.158-.263-.263a1.146,1.146,0,0,1-.21-.263c-.053-.053-.105-.158-.21-.21-.053-.105-.158-.21-.21-.315-.053-.053-.105-.158-.158-.21l-.158-.315a1.148,1.148,0,0,0-.158-.263c-.053-.053-.053-.105-.105-.21-.053-.158-.105-.263-.158-.42V43.7c-.053-.21-.105-.368-.158-.578h0a2.775,2.775,0,0,0-.053-.683h0a2.557,2.557,0,0,1-.053-.63v-.683c0-.21.053-.368.053-.578v-.053a6.327,6.327,0,0,1,4.884-5.147,5.158,5.158,0,0,1,1.786-.158h.21c.158,0,.263.053.42.053.105,0,.21.053.315.053a.974.974,0,0,1,.368.105c.053,0,.105.053.158.053l.473.158a.051.051,0,0,1,.053.053,10.5,10.5,0,0,1,1.1.525,3.188,3.188,0,0,1,.525.368h0a1.416,1.416,0,0,1,.42.368c.053.053.105.105.158.105l.263.263c.053.105.158.158.21.263a.725.725,0,0,1,.158.21c.105.105.158.263.263.368.053.053.053.105.105.158a1.573,1.573,0,0,1,.21.42c.053.053.053.105.105.158a2.561,2.561,0,0,1,.158.368c.053.105.053.158.105.263s.053.21.105.263a3.348,3.348,0,0,1,.105.368c0,.105.053.158.053.263S48,40.6,48,40.7s.053.263.053.368v.735Z" transform="translate(-13.551 -14.196)"/><path class="a" d="M51.207,33.177l-4.832-2.731a21.679,21.679,0,0,0,.263-2.994,18.794,18.794,0,0,0-.263-3.046l4.884-2.784a1.99,1.99,0,0,0,.945-1.208A1.941,1.941,0,0,0,52,18.892l-4.569-7.931a1.968,1.968,0,0,0-2.679-.735l-4.884,2.784a18.909,18.909,0,0,0-5.2-2.994V4.4a2,2,0,0,0-2-2H23.529a2,2,0,0,0-2,2v5.672a19.487,19.487,0,0,0-5.2,2.994l-4.884-2.784a1.968,1.968,0,0,0-2.679.735L4.148,18.944a2.191,2.191,0,0,0-.21,1.523,1.99,1.99,0,0,0,.945,1.208l4.884,2.731A17.642,17.642,0,0,0,9.505,27.4a18.692,18.692,0,0,0,.21,2.994L4.778,33.23a1.99,1.99,0,0,0-.945,1.208,1.787,1.787,0,0,0,.21,1.471l4.569,7.931a1.968,1.968,0,0,0,2.679.735l4.884-2.784a18.909,18.909,0,0,0,5.2,2.994V50.4a2,2,0,0,0,2,2H32.51a2,2,0,0,0,2-2V44.732a19.487,19.487,0,0,0,5.2-2.994l4.884,2.784a1.968,1.968,0,0,0,2.679-.735l4.569-7.931a2.191,2.191,0,0,0,.21-1.523A1.591,1.591,0,0,0,51.207,33.177Zm-5.882,8.4L39.39,38.167,38.6,38.9a15.959,15.959,0,0,1-5.935,3.466l-1,.315v6.828h-7.3V42.736l-1-.315a15.959,15.959,0,0,1-5.935-3.466l-.788-.735-5.935,3.414L7.037,35.278l5.882-3.361-.21-1a18.5,18.5,0,0,1-.315-3.466,13.607,13.607,0,0,1,.368-3.414l.263-1.05L7.089,19.627l3.676-6.408L16.7,16.633l.788-.735a15.959,15.959,0,0,1,5.935-3.466l1-.315V5.289h7.3v6.775l1,.315a15.959,15.959,0,0,1,5.935,3.466l.788.735,5.935-3.414,3.676,6.355-5.935,3.414.263,1.05a13.608,13.608,0,0,1,.368,3.414,15.069,15.069,0,0,1-.42,3.466l-.21,1,5.83,3.309Z"/></g></svg>