<svg xmlns="http://www.w3.org/2000/svg" width="28.799" height="36.051" viewBox="0 0 28.799 36.051"><defs><style>.a{fill:#fff;}</style></defs><g transform="translate(-3.282)"><path class="a" d="M16.369,36.051a.553.553,0,0,1-.552-.552V.552a.552.552,0,0,1,1.1,0V35.5A.553.553,0,0,1,16.369,36.051Z" transform="translate(1.313)"/><path class="a" d="M17.68,34.051h0a.556.556,0,0,1-.391-.161L3.443,20.04a.552.552,0,0,1,.781-.781L17.679,32.718l13.46-13.459a.552.552,0,0,1,.781.781L18.07,33.889A.55.55,0,0,1,17.68,34.051Z" transform="translate(0 2)"/></g></svg>