<svg xmlns="http://www.w3.org/2000/svg" width="35.71" height="28.527" viewBox="0 0 35.71 28.527"><defs><style>.a{fill:#F9FCFF;}</style></defs><g transform="translate(0 31.808) rotate(-90)"><path class="a" d="M16.364,35.71a.547.547,0,0,1-.547-.547V.547a.547.547,0,1,1,1.094,0V35.163A.547.547,0,0,1,16.364,35.71Z" transform="translate(1.182)"/><path class="a" d="M17.543,33.91h0a.551.551,0,0,1-.387-.16L3.442,20.031a.547.547,0,0,1,.774-.774L17.542,32.589,30.875,19.258a.547.547,0,1,1,.774.774L17.93,33.749A.545.545,0,0,1,17.543,33.91Z" transform="translate(0 1.8)"/></g></svg>