<svg xmlns="http://www.w3.org/2000/svg" width="42.416" height="20" viewBox="0 0 42.416 20"><defs><style>.a{fill:#3498e5;}</style></defs><g transform="translate(0.001 -149.859)"><g transform="translate(-0.001 149.859)"><path class="a" d="M42.188,160.758l-2.169.541c-.164.041-.236-.049-.162-.2l1.06-2.161a.37.37,0,0,0-.116-.449,15.259,15.259,0,0,0-2.6-1.719c-2.145-.945-4.385-1.67-6.558-2.553a2.456,2.456,0,0,1-1.31-1.039,5.619,5.619,0,0,0-3.675-3.239,3.123,3.123,0,0,0-1.917.2c-2.467.967-4.874,2.086-7.353,3.017a39.921,39.921,0,0,1-4.129,1.08c-.35.09-.814.094-1.018.322a3.124,3.124,0,0,0-.91,1.573c-.023.284.408.605.747.9a.2.2,0,0,1-.051.348,4.2,4.2,0,0,1-4.867-.739c-1.4-1.131-2.744-2.337-4.184-3.414A13.859,13.859,0,0,0,.4,151.8c-.153-.07-.2-.011-.116.132,2.783,4.538,2.861,8.922-.233,13.493-.095.139-.048.2.107.13,1.008-.429,2.038-.819,3-1.333,1.178-.628,2.254-1.447,3.429-2.082,2.344-1.267,3.429-1.331,5.783-.475a.323.323,0,0,1,.2.4c-.188.547-.466,1.1-.324,1.5a3.46,3.46,0,0,0,3.44,1.774c1.01-.319,1.991-.732,3-1.045a1.842,1.842,0,0,1,1.179-.058,16.94,16.94,0,0,0,8.942,1.165.179.179,0,0,1,.114.053c.055.044.036.2-.044.349-1.038,1.944-1.018,2.1.432,3.9a.438.438,0,0,0,.477.13c1.96-.843,1.3-2.857,1.863-4.4a.63.63,0,0,1,.418-.344c3.436-.729,6.98-1.5,10.114-3.446.125-.078.149-.319.226-.659C42.445,160.815,42.352,160.717,42.188,160.758Z" transform="translate(0.001 -149.859)"/></g></g></svg>