<svg xmlns="http://www.w3.org/2000/svg" width="42.667" height="32" viewBox="0 0 42.667 32"><defs><style>.a{fill:#7484aa;}</style></defs><path class="a" d="M23.333,37l1.621-6.4C18,30.152,11.792,27.187,10,23.3a8.164,8.164,0,0,1-.9,2.667c-1.408,2.5-4.267,2.5-7.1,2.5,2.347,0,3.2-3.349,3.2-7.467S4.347,13.533,2,13.533c2.837,0,5.7,0,7.1,2.5A8.164,8.164,0,0,1,10,18.7c1.387-3.029,5.483-5.483,10.475-6.613L16.933,5C21.2,5,25.467,5,28.3,6.429c2.411,1.195,3.8,3.413,5.035,5.781C39.568,13.7,44.667,17.075,44.667,21c0,4.011-5.333,7.467-11.733,8.875a34.567,34.567,0,0,1-4.971,5.7A6.371,6.371,0,0,1,23.333,37M34,17.8a2.133,2.133,0,1,0,2.133,2.133A2.133,2.133,0,0,0,34,17.8Z" transform="translate(-2 -5)"/></svg>