<?xml version="1.0" encoding="utf-8"?>
<!-- Generator: Adobe Illustrator 23.0.3, SVG Export Plug-In . SVG Version: 6.00 Build 0)  -->
<svg version="1.1" id="Layer_1" xmlns="http://www.w3.org/2000/svg" xmlns:xlink="http://www.w3.org/1999/xlink" x="0px" y="0px"
	 viewBox="0 0 612 400" style="enable-background:new 0 0 612 400;" xml:space="preserve">
<style type="text/css">
	.st0{opacity:0.2;}
	.st1{fill:#3498E5;}
	.st2{fill:#F9FCFF;}
</style>
<g id="logo" class="st0">
	<g id="Group_7">
		<path id="Path_1" class="st1" d="M244.5,400c-35.8,0.4-116.7-9.7-171-100.6C20.2,210.2,0,200,0,200s20.2-10.2,73.5-99.4
			C127.8,9.7,208.7-0.4,244.5,0h364.7v400L244.5,400L244.5,400z"/>
		<path id="Path_2" class="st2" d="M68.8,155.7c0,8.9,7.2,16,16,16.1c8.9,0,16-7.2,16.1-16s-7.2-16-16-16.1c0,0,0,0,0,0
			C76,139.6,68.8,146.8,68.8,155.7z"/>
	</g>
</g>
</svg>
