<svg xmlns="http://www.w3.org/2000/svg" width="37.173" height="20" viewBox="0 0 37.173 20"><defs><style>.a{fill:#3498e5;}</style></defs><g transform="translate(0 -133.725)"><g transform="translate(0 133.725)"><path class="a" d="M36.886,140.871l-.144-.524a.1.1,0,0,0-.029-.051,1.215,1.215,0,0,0-.644-1.1c-.079-.058-.162-.114-.245-.17a2.179,2.179,0,0,1-.646-.565,1.594,1.594,0,0,0-.607-.526,2.177,2.177,0,0,1-.33-.223,4.435,4.435,0,0,0-1.02-.721c-.645-.3-1.323-.542-1.979-.778l-.12-.043c-.584-.211-1.171-.415-1.758-.618-.455-.158-.91-.315-1.364-.477a21.039,21.039,0,0,0-4.256-1.16l-.082-.011a15.045,15.045,0,0,0-1.985-.177,6.414,6.414,0,0,0-.718.038c-.6.067-1.2.171-1.778.271-.285.049-.569.1-.854.143a6.21,6.21,0,0,0-1.431.469c-.215.091-.437.184-.658.263a7.484,7.484,0,0,1-2.547.427h-.067c-1.406-.011-2.824.031-4.217.125a3.563,3.563,0,0,0-1.791.6,1.873,1.873,0,0,0-.173.14l-.08.069a.131.131,0,0,0,.04.224,1.984,1.984,0,0,1,1,.917c.028.045.1.165-.1.366a6.121,6.121,0,0,0-.488.576c-.071.09-.144.184-.222.28a.131.131,0,0,0,.086.213l.991.117-.075.093c-.175.218-.364.452-.544.693a9.878,9.878,0,0,0-1.705,3.705,11.013,11.013,0,0,1-.747,2.024,1.911,1.911,0,0,1-.665.766,2.03,2.03,0,0,1-.711.22c-.087.016-.174.032-.258.051A5.536,5.536,0,0,0,1.018,148a3.5,3.5,0,0,0-.744,1.347,6.56,6.56,0,0,0-.234,1.8c0,.127-.009.255-.015.382,0,.037-.006.073-.01.111a1.426,1.426,0,0,0,0,.377.131.131,0,0,0,.219.078.845.845,0,0,1,.072-.058.474.474,0,0,0,.192-.221.873.873,0,0,1,.44-.538.94.94,0,0,0,.1-.009l.5-.076a.132.132,0,0,0,.091.019l1.36-.215a1.072,1.072,0,0,0,.423.063,1.771,1.771,0,0,0,.259-.041.766.766,0,0,0,.167.027,1.51,1.51,0,0,0,.313.076.266.266,0,0,1,.04.058.131.131,0,0,0,.189.048l.15-.1a2.351,2.351,0,0,0,.508-.108.65.65,0,0,0,.078-.026,7.319,7.319,0,0,0,1.331-.689l.093-.056a.746.746,0,0,0,.353.07A1.067,1.067,0,0,0,7.4,150.2c.48.557.977,1.132,1.487,1.677a2.776,2.776,0,0,0,1.921.995,1.864,1.864,0,0,0,.824-.2.55.55,0,0,0,.209-.179c.174.076.349.15.524.22a1.514,1.514,0,0,0,.834.094.268.268,0,0,0,.165-.045l.01-.007.008,0a.635.635,0,0,0,.181.021.474.474,0,0,1,.044.084,4.1,4.1,0,0,1,.16.5c.023.085.047.172.074.263a.131.131,0,0,0,.123.094h0a.132.132,0,0,0,.124-.089,3.339,3.339,0,0,0,.124-1.7,2.237,2.237,0,0,0-.423-1.364q-.044-.106-.091-.211a.154.154,0,0,0-.153-.073,2,2,0,0,0-.314-.255l-.135-.167a4.985,4.985,0,0,0-.912-.943,4,4,0,0,1-.857-.9,2.157,2.157,0,0,1-.241-.507c-.045-.12-.092-.244-.15-.362a1.533,1.533,0,0,0-.308-.387.3.3,0,0,0-.162-.075l.006-.045a5.636,5.636,0,0,0,.325-.534l.479-.587c.069-.069.134-.132.2-.19a.128.128,0,0,0,.129.06l.112-.013a2.164,2.164,0,0,0,.312-.049.23.23,0,0,1,.051-.006.369.369,0,0,1,.037.114.381.381,0,0,1,0,.185,1.65,1.65,0,0,0,.178,1.2c.03.071.061.143.089.214.017.045.033.09.047.137l-.051.044a.278.278,0,0,0-.089.316.335.335,0,0,0,.515.14,4.2,4.2,0,0,0,1.424-3.716c.094-.061.189-.118.27-.167l.142-.043a.181.181,0,0,0,.114.012c.254-.068.506-.14.759-.212l.372-.106c0,.025,0,.049,0,.074a1.959,1.959,0,0,0,.021.523,2.663,2.663,0,0,0,.243.6l.068.136a.231.231,0,0,0,.216.1.275.275,0,0,0,.124-.025c.338-.169.671-.347,1-.524.042-.023.083-.049.124-.076a.666.666,0,0,1,.168-.091.2.2,0,0,1,.085.032.418.418,0,0,0,.423.283,1.02,1.02,0,0,0,1.161-1.046,2.732,2.732,0,0,0-.019-.382,1.721,1.721,0,0,1-.016-.206,1.956,1.956,0,0,1,.217,0,9.679,9.679,0,0,0,3.662-.657l.007,0-.664,2.174a.131.131,0,0,0,.167.163l.032-.011a8.846,8.846,0,0,0,2.189-.965,1.029,1.029,0,0,0,.458-.29l.5-.554.112.032a2.587,2.587,0,0,1,1.215.632c.063.05.126.1.189.149a.594.594,0,0,0,.595.1,1.381,1.381,0,0,1,.376-.038c.069,0,.141,0,.214-.007a.131.131,0,0,0,.122-.124,2.918,2.918,0,0,0-.807-1.979l3.754.3-.517.941a.131.131,0,0,0,.134.193,1.148,1.148,0,0,0,.715-.6c.2-.444.448-.576.851-.47a.814.814,0,0,0,.243.017l-.274.359a1.071,1.071,0,0,1-.141.067.323.323,0,0,0-.2.367.289.289,0,0,0,.391.228,1.754,1.754,0,0,0,1.023-1.01l.07-.021c.169-.05.344-.1.513-.167a1.527,1.527,0,0,0,.37-.233c.1-.077.2-.16.311-.256l.007-.006.036.145c.057.228.108.436.157.623l.041.3a.271.271,0,0,0,.275.245.348.348,0,0,0,.258-.119.327.327,0,0,0,.075-.268l-.064-.453q.011-.314.018-.627a1.02,1.02,0,0,0-.007-.137.536.536,0,0,1,.024.052,8.048,8.048,0,0,0,.492,1.006.108.108,0,0,0,.11.054.33.33,0,0,0,.126.025.325.325,0,0,0,.264-.13.282.282,0,0,0,.031-.265Z" transform="translate(0 -133.725)"/></g></g></svg>