<svg xmlns="http://www.w3.org/2000/svg" width="358.731" height="299.746" viewBox="0 0 358.731 299.746"><defs><style>.a{fill:#3498E5;}</style></defs><g transform="translate(-256 -118.161)"><g transform="translate(256 118.161)"><path class="a" d="M357.192,235.257l-27.119-27.119a18.993,18.993,0,0,0-23.753-2.51l-23.151-23.149,8.026-8.025a21.971,21.971,0,0,0-13.608-37.423,21.963,21.963,0,0,0-18.08-28.044,21.969,21.969,0,0,0-18.671-29.9,21.974,21.974,0,0,0-33.107-24.5l-1.444-2.744a17.213,17.213,0,0,0-17.569-9.011l-33.128,4.617a21.229,21.229,0,0,0-35.3,14.658,21.432,21.432,0,0,0-4.52-.484,21.113,21.113,0,0,0-15.028,6.225h0a21.268,21.268,0,0,0-5.2,21.519A21.139,21.139,0,0,0,83.07,95.425h0a21.26,21.26,0,0,0-5.579,20.2,21.156,21.156,0,0,0-13.331,6.141h0a21.276,21.276,0,0,0,0,30.054l8.279,8.279a21.279,21.279,0,0,0,2.917,2.431,37.2,37.2,0,0,0,7.014,16.755l-29.955,29.96a19.017,19.017,0,0,0-23.753,2.506L1.545,238.868A5.255,5.255,0,0,0,8.976,246.3L36.1,219.181a8.486,8.486,0,0,1,11.989,0l16.872,16.872a5.255,5.255,0,1,0,7.431-7.432L60.145,216.378l33.11-33.116a5.254,5.254,0,0,0,0-7.43,26.654,26.654,0,0,1-6.116-9.528c.11,0,.22.008.33.008a21.23,21.23,0,0,0,21.167-19.361,21.384,21.384,0,0,0,5.4.694,21.229,21.229,0,0,0,21.037-18.314,21.257,21.257,0,0,0,24.661-32.017,21.119,21.119,0,0,0,10.077-5.645c.065-.065.124-.137.188-.2.968-.071,1.939-.185,2.909-.355l12.176-2.126a5.252,5.252,0,0,0,4.047-1.6l.1-.1,0,0,5.11-5.11,15.549-15.548q.08-.079.156-.162l1.576-1.575a11.464,11.464,0,0,1,16.216,16.208L223.5,85.442a5.255,5.255,0,0,0,7.432,7.432l.018-.018a11.461,11.461,0,0,1,16.191,16.226l-6.107,6.108-.034.034a5.255,5.255,0,0,0,7.436,7.428l.02-.02a11.475,11.475,0,0,1,16.186.018,11.48,11.48,0,0,1,0,16.211l-4.519,4.519a5.255,5.255,0,0,0,7.428,7.435,11.463,11.463,0,1,1,16.212,16.212l-11.682,11.681c-.02.019-.041.035-.06.055s-.036.041-.055.06L204.523,246.26a24.228,24.228,0,0,1-34.271,0l-.953-.953a5.255,5.255,0,0,0-7.431,0l-36.4,36.4L87.331,243.561a5.255,5.255,0,0,0-7.431,7.432l42.769,42.769a8.486,8.486,0,0,1,0,11.989L95.548,332.869a5.255,5.255,0,0,0,7.431,7.432L130.1,313.182a19.018,19.018,0,0,0,2.507-23.752L165.734,256.3a34.746,34.746,0,0,0,46.217-2.61l63.786-63.781,22.856,22.856-65.322,65.322-13.628-13.628a5.255,5.255,0,1,0-7.431,7.432l13.922,13.922a18.992,18.992,0,0,0,2.508,23.757l27.119,27.12a5.255,5.255,0,1,0,7.431-7.431L236.074,302.14a8.477,8.477,0,0,1,0-11.989l74.58-74.58a8.476,8.476,0,0,1,11.99,0l27.119,27.119a5.255,5.255,0,1,0,7.429-7.435Zm-223.3-179.5a10.661,10.661,0,0,1,6.971-3.118c-.087.109-.181.209-.263.322a11.212,11.212,0,0,0-2.08,8.491l.909,5.737A28.661,28.661,0,0,0,151.16,86.16c.5.359,1.017.7,1.537,1.022a10.654,10.654,0,0,1-5.506-2.947l-7.313-7.308-6.012-6.012A10.762,10.762,0,0,1,133.893,55.753ZM95.067,152.664a10.755,10.755,0,0,1-15.193,0l-8.279-8.278a10.756,10.756,0,0,1,0-15.194h0a10.755,10.755,0,0,1,15.184-.009l5.2,5.2,3.085,3.085a10.742,10.742,0,0,1,0,15.192Zm26.569-18.677a10.744,10.744,0,0,1-15.193,0l-7.03-7.03-5.194-5.195-.018-.017-3.7-3.7a10.756,10.756,0,0,1,0-15.194h0a10.755,10.755,0,0,1,15.188,0L121.639,118.8A10.758,10.758,0,0,1,121.636,133.987Zm28.148-17.1a10.744,10.744,0,0,1-15.193,0l-5.52-5.52,0,0L113.127,95.424,113.1,95.4l-4.928-4.928a10.756,10.756,0,0,1,0-15.194h0a10.754,10.754,0,0,1,15.193,0l3.04,3.04.053.056,5.764,5.761L149.784,101.7A10.757,10.757,0,0,1,149.784,116.888Zm46.238-51.249L182.969,78.686,171.1,80.758a18.362,18.362,0,0,1-21.3-15.217L148.9,59.8a.787.787,0,0,1,.668-.9l40.6-5.658a6.5,6.5,0,0,1,.914-.064,6.688,6.688,0,0,1,5.9,3.561l2.735,5.2Z" transform="translate(0 -42.094)"/></g></g></svg>