<svg xmlns="http://www.w3.org/2000/svg" width="54.655" height="50.3" viewBox="0 0 54.655 50.3"><defs><style>.a{fill:#3498e5;}</style></defs><g transform="translate(-2.541 -6.4)"><path class="a" d="M54.834,21.784H47.517V9.05a2.681,2.681,0,0,0-2.65-2.65H8.682a2.681,2.681,0,0,0-2.65,2.65V28.007a2.13,2.13,0,0,0,.346,1.21,2.925,2.925,0,0,0-.519,1.037L2.575,46.1v.058a2.724,2.724,0,0,0,.576,2.189,2.76,2.76,0,0,0,2.017.922H34.956V54.4a2.311,2.311,0,0,0,2.3,2.3H54.892a2.311,2.311,0,0,0,2.3-2.3V24.089A2.4,2.4,0,0,0,54.834,21.784ZM34.956,46.1H5.8l3.054-14.75h26.1Zm0-22.01v3.457H9.2V9.569H44.348V21.784H37.261A2.311,2.311,0,0,0,34.956,24.089Zm19.014,29.5H38.125V24.953H53.97Z"/><path class="a" d="M76.352,43.2h1.613a1.152,1.152,0,1,0,0-2.3H76.352A1.156,1.156,0,0,0,75.2,42.052,1.12,1.12,0,0,0,76.352,43.2Z" transform="translate(-30.795 -14.622)"/><ellipse class="a" cx="0.98" cy="0.979" rx="0.98" ry="0.979" transform="translate(49.706 26.451)"/><path class="a" d="M77.286,80.3a1.786,1.786,0,1,0,1.786,1.786A1.8,1.8,0,0,0,77.286,80.3Z" transform="translate(-30.922 -31.321)"/></g></svg>