<svg xmlns="http://www.w3.org/2000/svg" width="27.946" height="20" viewBox="0 0 27.946 20"><defs><style>.a{fill:#3498e5;}</style></defs><g transform="translate(-0.001 -84.255)"><g transform="translate(0.001 84.255)"><path class="a" d="M27.847,93.976l-.134-.029a1.261,1.261,0,0,0-.517-.042,6.55,6.55,0,0,0-.892.3l-.273.1a.118.118,0,0,1-.106-.024l-.071-.073a.1.1,0,0,1-.015-.1c.046-.093.09-.187.135-.28a7.95,7.95,0,0,1,.421-.8.639.639,0,0,0,.141-.527c-.046-.141-.186-.251-.455-.358-1.966-.783-3.887-1.579-5.711-2.365a.917.917,0,0,1-.328-.334,1.568,1.568,0,0,0-.261-.306,5.085,5.085,0,0,1-1.415-2.22,8.7,8.7,0,0,0-.765-1.552,3.424,3.424,0,0,0-1.067-.771c-.18-.1-.366-.207-.525-.309-.032-.021-.045-.027-.061-.027h-.034l-.012.031c-.013.034.013.058.04.083a5.835,5.835,0,0,1,1.83,2.8,9.186,9.186,0,0,0,.5,1.205.026.026,0,0,1,0,.019s-.007.006-.017.007l-.752.088c-.558.064-1.04.12-1.516.2a5.482,5.482,0,0,0-.6.144A3.454,3.454,0,0,1,14.5,89h-.353a3.02,3.02,0,0,1-1.513-.272,3.491,3.491,0,0,0-1.858-.52,6.74,6.74,0,0,0-1.935.353c-.847.259-1.693.552-2.588.862-.385.133-.781.271-1.2.412A.088.088,0,0,0,5.043,90l2.981,1.852a4.962,4.962,0,0,1-1.363.214,3.069,3.069,0,0,1-1.466-.353c-.705-.372-1.407-.781-2.086-1.177-.453-.264-.922-.537-1.388-.8a7.474,7.474,0,0,0-.793-.362c-.124-.052-.257-.106-.4-.168a.123.123,0,0,0-.172.092,32.674,32.674,0,0,0-.234,7.834.123.123,0,0,0,.158.114c.181-.051.359-.1.533-.142a9.009,9.009,0,0,0,1.246-.387c.461-.195.916-.423,1.356-.645.407-.2.829-.417,1.253-.6a4.211,4.211,0,0,1,3.6.021l-2.086.7a.179.179,0,0,0-.117.175l.048,0-.046.023a.226.226,0,0,0,.121.177c.3.142.606.293.9.439a22.942,22.942,0,0,0,2.29,1.03,2.208,2.208,0,0,0,.758.132,4.9,4.9,0,0,0,2.008-.606l.267-.123a3.7,3.7,0,0,1,2.178-.35c.764.106,1.518.155,2.392.211.344.022.7.045,1.08.074a3.176,3.176,0,0,0-1.579,3.266,3.32,3.32,0,0,1-1.486,3.467c-.053.034-.056.068-.049.091s.028.05.09.05h.018c2.163,0,2.875-1.53,3.564-3.01l.013-.027a13.947,13.947,0,0,0,.857-2.878l.065-.294c.1-.435.24-.529.65-.609l.223-.044a26.346,26.346,0,0,0,3.8-.941A18.1,18.1,0,0,0,26.972,95.1c.2-.113.4-.226.6-.337a.865.865,0,0,0,.3-.466c.02-.053.041-.105.063-.155a.117.117,0,0,0-.088-.169Z" transform="translate(-0.001 -84.255)"/></g></g></svg>