<?xml version="1.0" encoding="utf-8"?>
<!-- Generator: Adobe Illustrator 23.0.3, SVG Export Plug-In . SVG Version: 6.00 Build 0)  -->
<svg version="1.1" id="Layer_1" xmlns="http://www.w3.org/2000/svg" xmlns:xlink="http://www.w3.org/1999/xlink" x="0px" y="0px"
	 viewBox="0 0 204 25" style="enable-background:new 0 0 204 25;" xml:space="preserve">
<style type="text/css">
	.st0{fill:#3498E5;}
</style>
<g>
	<path class="st0" d="M12.3,14.4c0.2,0.4,0.3,0.8,0.5,1.1c0.2-0.4,0.3-0.8,0.5-1.2c0.2-0.4,0.3-0.7,0.5-1.1l5.1-10
		C18.9,3.1,19,3,19.1,2.9c0.1-0.1,0.2-0.2,0.3-0.2c0.1,0,0.3-0.1,0.4-0.1c0.1,0,0.3,0,0.5,0h3.5v19.8h-4.1V11c0-0.6,0-1.2,0.1-1.8
		l-5.3,10.2c-0.2,0.3-0.4,0.6-0.7,0.7c-0.3,0.2-0.6,0.2-0.9,0.2h-0.6c-0.4,0-0.7-0.1-0.9-0.2c-0.3-0.2-0.5-0.4-0.7-0.7L5.6,9.2
		c0,0.3,0.1,0.6,0.1,0.9c0,0.3,0,0.6,0,0.9v11.4H1.6V2.6h3.5c0.2,0,0.4,0,0.5,0c0.1,0,0.3,0,0.4,0.1c0.1,0,0.2,0.1,0.3,0.2
		C6.5,3,6.6,3.1,6.6,3.3l5.1,10.1C11.9,13.7,12.1,14,12.3,14.4z"/>
	<path class="st0" d="M45.5,22.4h-3.6c-0.4,0-0.7-0.1-1-0.3s-0.4-0.4-0.6-0.7l-1.2-3.5h-7.5l-1.2,3.5c-0.1,0.3-0.3,0.5-0.5,0.7
		c-0.3,0.2-0.6,0.3-1,0.3h-3.6l7.7-19.8h4.7L45.5,22.4z M32.8,14.8h5.4l-1.8-5.4c-0.1-0.3-0.3-0.8-0.4-1.2s-0.3-1-0.5-1.5
		c-0.1,0.6-0.3,1.1-0.4,1.5c-0.1,0.5-0.3,0.9-0.4,1.2L32.8,14.8z"/>
	<path class="st0" d="M51.7,15.1v7.3h-4.6V2.6h6.4c1.4,0,2.7,0.1,3.7,0.4c1,0.3,1.8,0.7,2.5,1.2c0.6,0.5,1.1,1.1,1.4,1.9
		c0.3,0.7,0.4,1.5,0.4,2.3c0,0.6-0.1,1.3-0.3,1.8s-0.4,1.1-0.8,1.6c-0.3,0.5-0.8,0.9-1.3,1.3s-1.1,0.7-1.7,0.9
		c0.3,0.2,0.6,0.3,0.9,0.6c0.3,0.2,0.5,0.5,0.7,0.8l4.2,6.9h-4.2c-0.8,0-1.3-0.3-1.7-0.9l-3.3-5.8c-0.2-0.2-0.3-0.4-0.5-0.5
		s-0.5-0.2-0.8-0.2H51.7z M51.7,11.9h1.8c0.6,0,1.2-0.1,1.6-0.2c0.4-0.2,0.8-0.4,1.1-0.7c0.3-0.3,0.5-0.6,0.6-1
		C56.9,9.6,57,9.2,57,8.8c0-0.9-0.3-1.6-0.9-2C55.6,6.3,54.7,6,53.5,6h-1.8V11.9z"/>
	<path class="st0" d="M69.5,10.6h0.7c0.7,0,1.2-0.2,1.5-0.6l4.5-6.5c0.3-0.3,0.5-0.6,0.8-0.7c0.3-0.1,0.7-0.2,1.1-0.2h4l-5.9,8
		c-0.4,0.6-0.9,1-1.3,1.2c0.3,0.1,0.7,0.3,0.9,0.5s0.5,0.5,0.8,0.9l6,9.2h-4.1c-0.3,0-0.5,0-0.7-0.1c-0.2,0-0.3-0.1-0.5-0.2
		c-0.1-0.1-0.3-0.2-0.4-0.3s-0.2-0.2-0.3-0.4l-4.5-6.9c-0.2-0.3-0.4-0.4-0.6-0.5c-0.2-0.1-0.6-0.2-1-0.2h-1.1v8.4h-4.6V2.6h4.6V10.6
		z"/>
	<path class="st0" d="M96.9,2.6v3.5h-8.1v4.6H95v3.4h-6.2v4.7h8.1v3.5H84.2V2.6H96.9z"/>
	<path class="st0" d="M114,2.6v3.6h-5.6v16.2h-4.6V6.2h-5.6V2.6H114z"/>
	<path class="st0" d="M118.6,14.6v7.8h-1.4V3.1h5c2.3,0,4,0.5,5.1,1.5c1.1,1,1.7,2.4,1.7,4.2c0,0.8-0.2,1.6-0.5,2.3
		c-0.3,0.7-0.8,1.3-1.4,1.8c-0.6,0.5-1.3,0.9-2.1,1.2c-0.8,0.3-1.8,0.4-2.8,0.4H118.6z M118.6,13.5h3.6c0.8,0,1.6-0.1,2.3-0.4
		s1.2-0.6,1.7-1c0.5-0.4,0.8-0.9,1.1-1.5c0.3-0.6,0.4-1.2,0.4-1.9c0-1.5-0.5-2.6-1.4-3.4c-0.9-0.8-2.3-1.2-4.1-1.2h-3.6V13.5z"/>
	<path class="st0" d="M134.4,21.2h9.1v1.2H133V3.1h1.4V21.2z"/>
	<path class="st0" d="M161.4,22.4h-1.1c-0.1,0-0.2,0-0.3-0.1c-0.1-0.1-0.1-0.2-0.2-0.3l-2.3-5.6h-9.5l-2.3,5.6
		c0,0.1-0.1,0.2-0.2,0.3c-0.1,0.1-0.2,0.1-0.3,0.1h-1.1l7.9-19.2h1.4L161.4,22.4z M148.5,15.4h8.6l-3.9-9.7
		c-0.1-0.3-0.3-0.7-0.4-1.1c-0.1,0.2-0.1,0.4-0.2,0.6c-0.1,0.2-0.1,0.4-0.2,0.5L148.5,15.4z"/>
	<path class="st0" d="M178,19.1c0.1,0,0.2,0,0.2,0.1l0.5,0.6c-0.4,0.4-0.8,0.8-1.3,1.1s-1,0.6-1.5,0.9s-1.2,0.4-1.8,0.6
		c-0.7,0.1-1.4,0.2-2.2,0.2c-1.3,0-2.6-0.2-3.7-0.7c-1.1-0.5-2.1-1.1-2.9-2c-0.8-0.9-1.4-1.9-1.9-3.1c-0.4-1.2-0.7-2.6-0.7-4.1
		c0-1.5,0.2-2.8,0.7-4c0.5-1.2,1.1-2.2,1.9-3.1c0.8-0.9,1.8-1.5,2.9-2c1.1-0.5,2.4-0.7,3.8-0.7c1.3,0,2.5,0.2,3.5,0.6s1.9,1,2.8,1.7
		L178,5.9C178,6,177.8,6,177.7,6c-0.1,0-0.3-0.1-0.5-0.3c-0.2-0.2-0.6-0.4-1-0.7c-0.4-0.2-1-0.5-1.6-0.7c-0.6-0.2-1.4-0.3-2.3-0.3
		c-1.2,0-2.2,0.2-3.2,0.6c-1,0.4-1.8,1-2.5,1.7c-0.7,0.7-1.2,1.6-1.6,2.7c-0.4,1.1-0.6,2.3-0.6,3.6c0,1.4,0.2,2.6,0.6,3.6
		c0.4,1.1,0.9,2,1.6,2.7c0.7,0.7,1.5,1.3,2.4,1.7c0.9,0.4,2,0.6,3,0.6c0.7,0,1.3,0,1.8-0.1c0.5-0.1,1-0.2,1.5-0.4s0.9-0.4,1.3-0.7
		c0.4-0.3,0.8-0.6,1.2-0.9c0,0,0.1-0.1,0.1-0.1C177.9,19.2,178,19.1,178,19.1z"/>
	<path class="st0" d="M194.1,3.1v1.2h-10.1v7.8h8.4v1.1h-8.4v8h10.2l0,1.2h-11.5V3.1H194.1z"/>
	<path class="st0" d="M197.4,21.3c0-0.2,0-0.3,0.1-0.5s0.2-0.3,0.3-0.4c0.1-0.1,0.2-0.2,0.4-0.3c0.1-0.1,0.3-0.1,0.5-0.1
		c0.2,0,0.3,0,0.5,0.1c0.2,0.1,0.3,0.2,0.4,0.3s0.2,0.2,0.3,0.4c0.1,0.2,0.1,0.3,0.1,0.5c0,0.2,0,0.3-0.1,0.5
		c-0.1,0.1-0.2,0.3-0.3,0.4s-0.2,0.2-0.4,0.3s-0.3,0.1-0.5,0.1c-0.4,0-0.7-0.1-0.9-0.4C197.5,22,197.4,21.7,197.4,21.3z"/>
</g>
</svg>
