<svg xmlns="http://www.w3.org/2000/svg" width="50.467" height="49.874" viewBox="0 0 50.467 49.874"><defs><style>.a{fill:#3498e5;}</style></defs><g transform="translate(-3.2 -3.7)"><path class="a" d="M53.074,19.75,45.534,4.616A1.622,1.622,0,0,0,44.08,3.7H12.733a1.587,1.587,0,0,0-1.454.916L3.739,19.75l-.377.808a1.658,1.658,0,0,0-.162.7v30.7a1.587,1.587,0,0,0,1.616,1.616H52.051a1.587,1.587,0,0,0,1.616-1.616v-30.7a1.491,1.491,0,0,0-.162-.7ZM29.861,6.662H43.272L49.789,19.75H29.861S29.861,6.662,29.861,6.662Zm-16.266,0H26.9V19.75H7.024ZM50.7,50.612H6.108v-27.9H50.65v27.9Z" transform="translate(0 0)"/><path class="a" d="M30.273,76H15.462A1.563,1.563,0,0,1,13.9,74.433V66.462A1.563,1.563,0,0,1,15.462,64.9H30.22a1.61,1.61,0,0,1,1.616,1.562v7.917A1.576,1.576,0,0,1,30.273,76Z" transform="translate(-4.937 -28.238)"/></g></svg>