<svg xmlns="http://www.w3.org/2000/svg" width="379.4" height="351.106" viewBox="0 0 379.4 351.106"><defs><style>.a{fill:#7484aa;}</style></defs><g transform="translate(-10 -28.343)"><path class="a" d="M315.3,212.888V118.434a4.627,4.627,0,0,0-2.313-4.01L164.965,28.963a4.627,4.627,0,0,0-4.627,0L12.313,114.427A4.627,4.627,0,0,0,10,118.437V289.36a4.627,4.627,0,0,0,2.313,4.01L160.339,378.83a4.63,4.63,0,0,0,4.627,0l79.165-45.707a78.628,78.628,0,1,0,71.175-120.235ZM162.652,198.545l-66.209-38.23L235.2,80.2l66.21,38.227Zm0-160.23,63.3,36.545L87.19,154.972l-63.3-36.545Zm-143.4,88.121,138.772,80.121V366.808L19.254,286.688ZM167.279,366.808V206.556L306.05,126.436V212.9a78.618,78.618,0,0,0-66.376,112.113Zm143.476-6.029a69.386,69.386,0,1,1,69.385-69.386,69.386,69.386,0,0,1-69.385,69.386Z" transform="translate(0)"/><path class="a" d="M418.552,305.278c-17.631-16.794-46.318-16.8-63.949,0a42.147,42.147,0,0,0-5.819,54.737l33.989,49.129a4.627,4.627,0,0,0,7.61,0l33.989-49.129a42.147,42.147,0,0,0-5.82-54.737Zm-1.791,49.473L386.578,398.38l-30.184-43.629a32.936,32.936,0,0,1,4.591-42.772,37.521,37.521,0,0,1,51.184,0A32.938,32.938,0,0,1,416.761,354.751Z" transform="translate(-75.823 -60.499)"/><path class="a" d="M392.589,316.271a25.04,25.04,0,1,0,25.038,25.04,25.04,25.04,0,0,0-25.038-25.04Zm0,40.826a15.787,15.787,0,1,1,15.785-15.786A15.787,15.787,0,0,1,392.589,357.1Z" transform="translate(-81.833 -65.898)"/></g></svg>