<svg xmlns="http://www.w3.org/2000/svg" width="358.431" height="351.269" viewBox="0 0 358.431 351.269"><defs><style>.a{fill:#7484aa;}</style></defs><g transform="translate(0 -5.115)"><g transform="translate(266.883 190.98)"><path class="a" d="M410.123,270.613a5.216,5.216,0,0,0-5.216,5.216,6.623,6.623,0,1,1-13.247,0,5.216,5.216,0,1,0-10.432,0,17.056,17.056,0,1,0,34.111,0A5.215,5.215,0,0,0,410.123,270.613Z" transform="translate(-381.228 -270.613)"/></g><g transform="translate(0 5.115)"><path class="a" d="M344.741,191.832l-14.682-4.7a6.142,6.142,0,0,1-3.964-4.016,94.66,94.66,0,0,0-13.879-27.452,100.735,100.735,0,0,0-9.272-10.937,129.387,129.387,0,0,0,3.191-29.546c-.218-13.291-2.874-21.086-8.119-23.833-2.825-1.481-11.421-5.981-57.952,15.319a16.93,16.93,0,0,0-3.084,1.836c-3.137-.843-6.343-1.623-9.569-2.323-.389-.085-.789-.16-1.18-.242a71.059,71.059,0,0,0,6.386-26.418,5.216,5.216,0,0,0-10.423-.467,60.693,60.693,0,0,1-39.71,54.267,151.27,151.27,0,0,0-41.987,0,60.741,60.741,0,1,1,75.288-84.329A5.216,5.216,0,0,0,225.1,44.3a71.2,71.2,0,1,0-101.394,92.37h0q-4.865,1.264-9.645,2.853a5.217,5.217,0,0,0,3.308,9.9,139.989,139.989,0,0,1,88.23,0,5.217,5.217,0,0,0,3.308-9.9q-4.775-1.6-9.645-2.853h0A71.128,71.128,0,0,0,220.927,115.5c1.438.279,2.865.572,4.272.877q2.81.61,5.586,1.3c-.058.227-.118.453-.166.683-2.544,12.073-2.379,22.75.491,31.734a37.765,37.765,0,0,0,13.833,19.446,43.881,43.881,0,0,0,25.675,8.148c6.4,0,12.3-1.393,16.639-3.848,4.9-2.777,9.011-8.629,12.263-17.415q2.255,2.632,4.27,5.391a84.227,84.227,0,0,1,12.353,24.431,16.589,16.589,0,0,0,10.733,10.822l14.682,4.7A9.237,9.237,0,0,1,348,210.594v24.345a9.237,9.237,0,0,1-6.441,8.825l-23.654,7.577a16.117,16.117,0,0,0-9.018,7.324c-9.293,16.061-23.9,29.351-43.43,39.5a8.173,8.173,0,0,0-4.289,5.762l-7.576,40.116a2.345,2.345,0,0,1-2.3,1.907H226.657a2.345,2.345,0,0,1-2.3-1.907l-4.2-22.17a8.2,8.2,0,0,0-9.321-6.592,218.054,218.054,0,0,1-32.5,2.417,207.973,207.973,0,0,1-23.907-1.351,8.263,8.263,0,0,0-9.039,6.631l-3.988,21.066a2.345,2.345,0,0,1-2.3,1.907H114.473a2.349,2.349,0,0,1-2.305-1.924l-7.295-37.889a8.189,8.189,0,0,0-4.209-5.7C67.381,282.675,49.788,252.99,49.788,214.6c0-19.4,4.244-36.55,12.613-50.982,7.81-13.468,19.217-24.6,33.9-33.1a5.217,5.217,0,0,0-5.224-9.031C62.6,137.959,45.427,163.374,40.7,195.654h0c-.5-.046-1-.089-1.505-.141a25.972,25.972,0,0,0-1.911-10.408c-3.026-7.523-9.243-12.953-15.838-13.833-5.2-.7-10.143,1.511-13.576,6.046C2.891,183.895,3.7,189.1,5.259,192.307c2.627,5.414,9.381,9.243,20.588,11.65q-.462.692-1.018,1.39c-6.622,8.3-14.423,10.141-19.489,10.314A5.477,5.477,0,0,0,0,221.11v.025a5.463,5.463,0,0,0,5.234,5.448q.562.026,1.173.027c6.41,0,16.7-2.364,26.581-14.757A29.75,29.75,0,0,0,36.8,205.7q1.476.167,2.836.291a.015.015,0,0,1,0-.006c-.178,2.827-.277,5.7-.277,8.614,0,21.722,5.178,41.089,15.39,57.566,9.416,15.191,22.9,27.63,40.082,36.984l7.092,36.834a12.786,12.786,0,0,0,12.553,10.4h24.633a12.786,12.786,0,0,0,12.553-10.4l3.605-19.047a219.832,219.832,0,0,0,23.077,1.2A229.168,229.168,0,0,0,210.3,325.9l3.8,20.081a12.787,12.787,0,0,0,12.553,10.4h24.633a12.787,12.787,0,0,0,12.554-10.4l7.377-39.057c20.839-11.02,36.547-25.5,46.7-43.036a5.7,5.7,0,0,1,3.171-2.613l23.654-7.577a19.641,19.641,0,0,0,13.69-18.762V210.592A19.637,19.637,0,0,0,344.741,191.832Zm-49.821-62c-2.008,17.17-7.393,31.857-12.8,34.922-6.151,3.484-20.351,4.157-31.013-3.642s-14.227-21.85-10.276-40.608h0a6.294,6.294,0,0,1,3.58-4.358c26.115-11.954,41.171-15.864,46.765-15.864a5.456,5.456,0,0,1,1.892.253C294.743,102.329,296.947,112.509,294.92,129.837ZM14.646,187.751c-.54-1.113.734-3.07,1.542-4.138,1.28-1.691,2.46-2.037,3.351-2.037a3.917,3.917,0,0,1,.525.037c2.4.32,5.759,2.959,7.539,7.384a15.838,15.838,0,0,1,1.091,4.919C21.474,192.421,15.863,190.264,14.646,187.751Z" transform="translate(0 -5.115)"/></g><g transform="translate(142.004 38.609)"><path class="a" d="M227.4,84.684V66.018c6.437.46,8.828,3.4,11.035,3.4,2.759,0,4.046-3.494,4.046-5.241,0-4.506-8.828-6.437-15.081-6.621V55.074c0-1.1-1.38-2.115-2.759-2.115a2.426,2.426,0,0,0-2.667,2.115V57.74c-8.736.92-17.472,5.518-17.472,17.1,0,11.771,9.2,15.081,17.472,18.024v21.61c-9.38-.736-11.863-7.173-14.9-7.173-2.3,0-4.23,3.035-4.23,5.242,0,4.506,7.724,10.667,19.127,10.851h0v2.851a2.427,2.427,0,0,0,2.667,2.115c1.38,0,2.759-1.012,2.759-2.115v-3.126c9.932-1.38,16.736-7.633,16.736-18.944C244.135,91.674,235.4,87.627,227.4,84.684Zm-4.875-1.747c-4.874-1.839-8.828-3.77-8.828-9.011,0-4.782,3.678-7.081,8.828-7.724Zm4.322,31.357v-19.4c4.506,1.931,8.092,4.506,8.092,10.3C234.938,110.433,231.811,113.376,226.846,114.295Z" transform="translate(-202.845 -52.959)"/></g></g></svg>