<svg xmlns="http://www.w3.org/2000/svg" width="49.934" height="50" viewBox="0 0 49.934 50"><defs><style>.a{fill:#3498e5;}</style></defs><path class="a" d="M2.8,32.371l4.7-4.7a1.993,1.993,0,0,1,2.192-.418L15.22,29.71l6.472-6.733L9.061,12.852a2.193,2.193,0,0,1-.731-1.409A1.858,1.858,0,0,1,8.9,9.929l6.628-6.576a1.984,1.984,0,0,1,2.3-.365l15.449,8.142,6.785-6.942A7.03,7.03,0,0,1,45.074,2.1a6.942,6.942,0,0,1,5.01,2.088,7.151,7.151,0,0,1,0,10.073l-6.942,6.785,8.194,15.449a1.906,1.906,0,0,1-.365,2.3l-6.628,6.628a1.858,1.858,0,0,1-1.514.574,1.971,1.971,0,0,1-1.409-.731L31.3,32.632,24.51,39.209l2.505,5.428a1.922,1.922,0,0,1-.418,2.192l-4.7,4.7a2.017,2.017,0,0,1-1.409.574.662.662,0,0,1-.313-.052,2.079,2.079,0,0,1-1.461-1.1l-5.01-10.8L3.425,35.5a2.09,2.09,0,0,1-1.148-1.409A1.8,1.8,0,0,1,2.8,32.371Zm12.735,5.48.157.157.209.209L20.8,48.6l3.34-3.34L21.483,39.47l-.418-.939,8.977-8.664a1.954,1.954,0,0,1,1.461-.522,2.076,2.076,0,0,1,1.409.731L43.038,42.653l5.428-5.428L40.324,21.776a1.894,1.894,0,0,1,.365-2.3L48.1,12.225a4.221,4.221,0,0,0,0-6,4.307,4.307,0,0,0-3.027-1.253A3.982,3.982,0,0,0,42.1,6.223l-7.255,7.411a1.906,1.906,0,0,1-2.3.365L17.1,5.858l-5.428,5.428L24.3,21.411a2.076,2.076,0,0,1,.731,1.409,1.818,1.818,0,0,1-.522,1.461l-7.62,7.881a1.922,1.922,0,0,1-2.192.418L9.114,30.127l-3.34,3.34Z" transform="translate(-2.225 -2.1)"/></svg>