<svg xmlns="http://www.w3.org/2000/svg" width="55.65" height="50.007" viewBox="0 0 55.65 50.007"><defs><style>.a{fill:#3498e5;}</style></defs><g transform="translate(-1.5 -1.4)"><path class="a" d="M56.9,58.092a5.81,5.81,0,0,0-7-3.842L36.482,57.69a4.635,4.635,0,0,0,.057-.918,5.323,5.323,0,0,0-5.333-5.333H20.253a4.537,4.537,0,0,0-4.3-3.039H6.03A4.552,4.552,0,0,0,1.5,52.988V65.6a4.54,4.54,0,0,0,4.53,4.53h9.978a4.7,4.7,0,0,0,3.269-1.376l.057-.057,1.376.688a18.537,18.537,0,0,0,13.706,1.319l3.556-1.032h0l14.968-4.3a5.612,5.612,0,0,0,3.5-2.753A5.914,5.914,0,0,0,56.9,58.092ZM17.041,66.579a1.343,1.343,0,0,1-.975.4H6.03A1.359,1.359,0,0,1,4.654,65.6V52.988A1.359,1.359,0,0,1,6.03,51.611h9.921a1.373,1.373,0,0,1,1.376,1.434V65.719A1,1,0,0,1,17.041,66.579Zm36.587-5.448a2.793,2.793,0,0,1-1.548,1.262l-4.129,1.2V63.54L33.557,67.726A15.564,15.564,0,0,1,22.2,66.636l-1.663-.86V54.651H31.206a2.178,2.178,0,0,1,2.179,2.179,3.145,3.145,0,0,1-3.154,3.154H26.962a1.6,1.6,0,0,0-1.606,1.606A1.568,1.568,0,0,0,26.962,63.2h3.269a6.133,6.133,0,0,0,4.244-1.663L50.7,57.346a2.686,2.686,0,0,1,3.211,1.72A2.887,2.887,0,0,1,53.629,61.131Z" transform="translate(0 -20.047)"/><path class="a" d="M69.777,16.024h6.079a2.581,2.581,0,0,1,0,5.161H67.082a1.6,1.6,0,0,0-1.606,1.606A1.568,1.568,0,0,0,67.082,24.4H71.67v1.548a1.6,1.6,0,0,0,1.606,1.606,1.568,1.568,0,0,0,1.606-1.606V24.4h1.032a5.735,5.735,0,1,0,0-11.469H69.777A2.57,2.57,0,0,1,67.2,10.346a2.762,2.762,0,0,1,.746-1.835,2.653,2.653,0,0,1,1.835-.746h8.831A1.6,1.6,0,0,0,80.215,6.16a1.555,1.555,0,0,0-1.606-1.548H74.824V3.006A1.6,1.6,0,0,0,73.218,1.4a1.568,1.568,0,0,0-1.606,1.606V4.611H69.777a5.452,5.452,0,0,0-4.014,1.663A5.641,5.641,0,0,0,64.1,10.289,5.7,5.7,0,0,0,69.777,16.024Z" transform="translate(-26.701)"/></g></svg>