<svg xmlns="http://www.w3.org/2000/svg" width="30.382" height="20" viewBox="0 0 30.382 20"><defs><style>.a{fill:#3498e5;}</style></defs><g transform="translate(0.002 -95.87)"><g transform="translate(-0.002 95.87)"><path class="a" d="M.542,108.533l.031.135c.039.169.121.52.433.52h0a.844.844,0,0,0,.369-.112,28.577,28.577,0,0,0,2.574-1.426,2.263,2.263,0,0,1,1.246-.341,3.334,3.334,0,0,1,1.782.534l-.077.019c-.14.036-.281.071-.423.1a1.253,1.253,0,0,0-1.1.959,1.82,1.82,0,0,0,.682,1.694,1.513,1.513,0,0,0,1.335.171c.2-.067.4-.143.6-.218s.437-.164.657-.235c.048-.015.1-.033.145-.051.241-.09.454-.141.634.047a.22.22,0,0,0,.165.058.873.873,0,0,0,.265-.053,1.107,1.107,0,0,1,.986.131c.638.343,1.346.681,2.164,1.035a8.593,8.593,0,0,0,3.21.524c.108,0,.215,0,.329,0h.326a1.4,1.4,0,0,1-.179.12,1.5,1.5,0,0,0-.762,1.837,2.222,2.222,0,0,0,1.55,1.847,1.2,1.2,0,0,0,.312.039,1.417,1.417,0,0,0,1.13-.528,5.228,5.228,0,0,0,.812-3.057c0-.333.064-.4.414-.421a18.4,18.4,0,0,0,5.693-1.47c.952-.388,1.905-.816,2.827-1.229.4-.18.8-.361,1.207-.539l.066-.026a.421.421,0,0,0,.248-.173.933.933,0,0,0,.181-.562c-.03-.178-.3-.339-.466-.372a3.552,3.552,0,0,0-.485-.048,2.632,2.632,0,0,1-.547-.065,3.066,3.066,0,0,1-.69-.322c-.059-.034-.118-.067-.171-.095a.207.207,0,0,1-.031-.113l.011-.2c.037-.7.075-1.426.136-2.135a1.681,1.681,0,0,1,.137-.46c.019-.048.038-.1.056-.143a.513.513,0,0,0-.01-.49.422.422,0,0,0-.374-.161H27.9a6.892,6.892,0,0,1-2.9-.693,6.408,6.408,0,0,0-1.232-.323c-1.061-.2-2.124-.385-3.2-.574l-1.162-.206-.119-.943a.111.111,0,0,0-.108-.1H19.1a.122.122,0,0,0-.11.093l-.012.078-.085-.352c-.153-.635-.3-1.234-.483-1.824a19.2,19.2,0,0,0-1.007-2.482.11.11,0,0,0-.206.078c.051.182.105.363.159.544.12.4.245.821.334,1.236a4.15,4.15,0,0,1,.13,1.473l-1.076-2.5A.126.126,0,0,0,16.6,96.7l-.146.042a.11.11,0,0,0-.069.153,3.846,3.846,0,0,1,.374,3.109l-1.144-1.316a.11.11,0,0,0-.192.091,1.8,1.8,0,0,0,.2.509.987.987,0,0,1,.166.689l-.848-.758a.11.11,0,0,0-.178.117l.3.9-.881-.821a.11.11,0,0,0-.182.108l.224.875-.754-.633a.111.111,0,0,0-.117-.016l-.071.033a.11.11,0,0,0-.056.142l.24.6-.76-.264a.11.11,0,0,0-.133.157l.207.379-.38-.19a.11.11,0,0,0-.158.076l-.038.183c-.092-.052-.184-.1-.276-.151a5.061,5.061,0,0,1-.822-.511,1.779,1.779,0,0,0-1.159-.44,2.322,2.322,0,0,0-.564.075A6.139,6.139,0,0,0,6.6,101.25a1.423,1.423,0,0,0-.533,1.135,1.659,1.659,0,0,0,.764,1.157.533.533,0,0,1-.121.107,2.2,2.2,0,0,1-1.019.207,3.123,3.123,0,0,1-1.77-.49c-.81-.634-1.654-1.251-2.47-1.847l-.019-.014a.7.7,0,0,0-.391-.176c-.215,0-.314.212-.391.41a9.494,9.494,0,0,0-.285,6.08C.431,108.053.488,108.3.542,108.533Z" transform="translate(0.002 -95.87)"/></g></g></svg>