<?xml version="1.0" encoding="utf-8"?>
<!-- Generator: Adobe Illustrator 23.0.3, SVG Export Plug-In . SVG Version: 6.00 Build 0)  -->
<svg version="1.1" id="Layer_1" xmlns="http://www.w3.org/2000/svg" xmlns:xlink="http://www.w3.org/1999/xlink" x="0px" y="0px"
	 viewBox="0 0 71 51" style="enable-background:new 0 0 71 51;" xml:space="preserve">
<style type="text/css">
	.st0{fill:#F7F8F9;}
</style>
<g id="logo" transform="translate(-85.499 -180.5)">
	<g id="Group_7" transform="translate(85.999 181)">
		<path id="Subtraction_3" class="st0" d="M39.78,50.02H-0.7V-0.5h40.49c3.41,0.01,6.77,0.73,9.88,2.13
			c4.83,2.25,8.83,5.95,11.46,10.58c6.65,11.14,9.25,12.54,9.27,12.55c-0.11,0.06-2.74,1.61-9.27,12.55
			c-2.63,4.63-6.63,8.33-11.46,10.59C46.56,49.29,43.19,50.01,39.78,50.02z M42.66,31.6c-3.55,0-5.94,2.46-5.94,6.12
			s2.35,6.12,5.86,6.12c1.35,0.01,2.67-0.46,3.7-1.34l0.76,1.08h3.33l-2.35-2.97c0.39-0.91,0.58-1.89,0.56-2.89
			C48.58,34,46.26,31.6,42.66,31.6z M25.34,31.86v7.44c0,2.88,1.89,4.53,5.19,4.53s5.19-1.68,5.19-4.61v-7.36h-3.1v7.35
			c0,1.43-0.73,2.22-2.06,2.22c-1.05,0.13-2-0.62-2.13-1.67c-0.02-0.16-0.02-0.32,0-0.48v-7.41L25.34,31.86z M18.44,31.6
			c-3.55,0-5.94,2.46-5.94,6.12c0,4.51,3.06,6.12,5.92,6.12c4.39,0,5.94-3.3,5.94-6.12c0.2-3.18-2.22-5.91-5.4-6.11
			C18.79,31.6,18.61,31.59,18.44,31.6L18.44,31.6z M2.52,39.56v0.28c0,2.54,1.8,4,4.93,4c3.53,0,4.78-1.96,4.78-3.63
			c0-1.54-0.91-2.67-2.77-3.45l-1.72-0.73c-1.06-0.44-1.54-0.64-1.54-1.18c0-0.44,0.36-0.91,1.38-0.91c1.44,0,1.64,0.73,1.64,1.53
			h2.87v-0.22c0-2.49-1.44-3.65-4.55-3.65c-2.67,0-4.46,1.45-4.46,3.6c0,1.78,1.32,2.63,2.74,3.28l1.93,0.86
			c1.13,0.5,1.33,0.64,1.33,1.19c0,0.89-1.18,0.96-1.54,0.96c-2.02,0-2.09-1.36-2.13-1.94L2.52,39.56z M29.87,18.64
			c-3.55,0-5.94,2.46-5.94,6.12c0,4.51,3.06,6.12,5.92,6.12c4.38,0,5.94-3.3,5.94-6.12c0.2-3.18-2.22-5.91-5.4-6.11
			C30.21,18.64,30.04,18.63,29.87,18.64z M17.65,18.64c-3.55,0-5.94,2.46-5.94,6.12c0,4.51,3.06,6.12,5.92,6.12
			c4.39,0,5.94-3.3,5.94-6.12c0.2-3.18-2.22-5.91-5.4-6.11C18,18.64,17.82,18.63,17.65,18.64z M36.9,18.9v11.71h4.56
			c3.13,0.17,5.81-2.23,5.99-5.36c0.01-0.16,0.01-0.33,0.01-0.49c0-1.76-0.63-5.85-6.49-5.85L36.9,18.9z M3.34,18.9v11.71h3.1v-4.86
			h4.9v-2.39h-4.9v-2.07h5.38V18.9H3.34z M59.69,17.13c-1.12,0-2.02,0.91-2.02,2.03s0.91,2.02,2.03,2.02c1.12,0,2.02-0.91,2.02-2.02
			C61.71,18.04,60.81,17.13,59.69,17.13L59.69,17.13z M2.51,13.63v0.28c0,2.54,1.8,4,4.93,4c3.53,0,4.78-1.96,4.78-3.63
			c0-1.54-0.91-2.67-2.77-3.45L7.73,10.1C6.67,9.66,6.18,9.46,6.18,8.92c0-0.44,0.36-0.91,1.38-0.91c1.44,0,1.64,0.73,1.64,1.52
			h2.87V9.33c0-2.49-1.44-3.65-4.55-3.65c-2.67,0-4.46,1.45-4.46,3.6c0,1.79,1.32,2.63,2.74,3.28l1.92,0.86
			c1.13,0.5,1.33,0.64,1.33,1.19c0,0.89-1.18,0.96-1.54,0.96c-2.03,0-2.09-1.36-2.12-1.94L2.51,13.63z M26.27,15.32h3.77l0.78,2.32
			h3.22l-4.4-11.71h-2.97l-4.38,11.72h3.21L26.27,15.32L26.27,15.32z M13.22,5.94v11.71h8.71v-2.41h-5.59v-2.45h4.9V10.4h-4.9V8.33
			h5.38V5.94H13.22z M42.68,41.44c-2.53,0-2.72-2.84-2.72-3.72c0-1.8,0.71-3.72,2.69-3.72c2.37,0,2.72,2.36,2.72,3.76
			C45.36,38.87,45.1,41.44,42.68,41.44z M18.43,41.44c-2.46,0-2.72-2.6-2.72-3.72c0-0.87,0.19-3.72,2.69-3.72
			c2.37,0,2.72,2.36,2.72,3.76C21.12,38.63,20.93,41.44,18.43,41.44L18.43,41.44z M29.87,28.47c-2.46,0-2.72-2.6-2.72-3.72
			c0-0.87,0.19-3.72,2.69-3.72c2.37,0,2.72,2.36,2.72,3.76C32.55,25.67,32.36,28.47,29.87,28.47z M17.65,28.47
			c-2.46,0-2.72-2.6-2.72-3.72c0-0.87,0.19-3.72,2.69-3.72c2.37,0,2.72,2.36,2.72,3.76C20.34,25.67,20.15,28.47,17.65,28.47z
			 M41.1,28.21h-1.08v-6.91h1.28c1.92,0,2.94,1.2,2.94,3.47c0.09,0.97-0.21,1.94-0.83,2.69C42.77,28,41.94,28.28,41.1,28.21z
			 M29.27,12.99h-2.24l1.13-3.96L29.27,12.99L29.27,12.99z"/>
	</g>
</g>
</svg>
