<svg xmlns="http://www.w3.org/2000/svg" width="26.512" height="28.172" viewBox="0 0 26.512 28.172"><defs><style>.a{fill:#7484aa;}</style></defs><path class="a" d="M23.95,0C3-.077,6.05,9.227,6.05,9.227S3.652.577,23.873.577c6.6.21,7.139,2.263,7.185,3.018H19.251s-1.891.09-3.145.273c-4.137.6-6.936,4.089-6.971,8.662-.06,8.006,6.006,11.136,8.85,11.19,1.08,2.486,3.187,5.6,5.161,4.021,2.221-1.779-2.474-4.306-2.474-4.306s4.9,1.052,4.9-1.213-5.287-2.123-7.446-.332c-3.214.053-3.514-3.979-3.48-5.251.031-1.163.6-3.741,4.6-3.741h1.675c11.482,0,11.482-9.3,11.482-9.3C32.407,1.61,28.62.016,23.95,0Z" transform="translate(-5.895 0)"/></svg>