<svg xmlns="http://www.w3.org/2000/svg" width="12" height="9" viewBox="0 0 12 9"><defs><style>.a{fill:#3e4e75;}</style></defs><path class="a" d="M8,14l.456-1.8c-1.956-.126-3.7-.96-4.206-2.052A2.3,2.3,0,0,1,4,10.9c-.4.7-1.2.7-2,.7.66,0,.9-.942.9-2.1S2.66,7.4,2,7.4c.8,0,1.6,0,2,.7a2.3,2.3,0,0,1,.252.75A4.205,4.205,0,0,1,7.2,6.992L6.2,5a7.747,7.747,0,0,1,3.2.4,3.415,3.415,0,0,1,1.416,1.626C12.566,7.448,14,8.4,14,9.5c0,1.128-1.5,2.1-3.3,2.5a9.722,9.722,0,0,1-1.4,1.6A1.792,1.792,0,0,1,8,14m3-5.4a.6.6,0,1,0,.6.6A.6.6,0,0,0,11,8.6Z" transform="translate(-2 -5)"/></svg>