<svg xmlns="http://www.w3.org/2000/svg" width="50.678" height="50.073" viewBox="0 0 50.678 50.073"><defs><style>.a{fill:#3498e5;}</style></defs><path class="a" d="M52.529,12.026l-.159-1.008-1.008-.159c-.53-.106-13.207-2.175-20,4.614a14.707,14.707,0,0,0-2.705,3.819c-.424-3.872-1.644-8.327-4.827-11.457h0C16.992.994,4.316,3.062,3.785,3.168l-1.008.159L2.566,4.388c-.106.53-2.175,13.207,4.614,20,4.19,4.19,10.555,4.986,15.01,4.986a34.912,34.912,0,0,0,3.978-.212V51.382a1.483,1.483,0,0,0,1.485,1.485,1.439,1.439,0,0,0,1.432-1.485V36.8a32.968,32.968,0,0,0,3.766.212c4.455,0,10.82-.849,15.01-4.986C54.651,25.233,52.582,12.556,52.529,12.026ZM25.691,26.294c-3.023.318-11.669.743-16.389-3.978S5.005,8.95,5.324,5.926C8.347,5.608,16.992,5.184,21.713,9.9h0C26.434,14.572,26.009,23.27,25.691,26.294Zm20.1,3.66c-4.721,4.721-13.366,4.3-16.389,3.978-.318-3.023-.743-11.669,3.978-16.389s13.366-4.3,16.389-3.978C50.089,16.587,50.514,25.233,45.793,29.954Z" transform="translate(-2.188 -2.793)"/></svg>