<svg xmlns="http://www.w3.org/2000/svg" width="50" height="50" viewBox="0 0 50 50"><defs><style>.a{fill:#3498e5;}</style></defs><g transform="translate(-3.1 -3.1)"><path class="a" d="M51.607,50.168H6.032V4.593A1.49,1.49,0,0,0,4.539,3.1,1.445,1.445,0,0,0,3.1,4.593V53.1H51.607A1.49,1.49,0,0,0,53.1,51.607,1.445,1.445,0,0,0,51.607,50.168Z" transform="translate(0 0)"/><path class="a" d="M20.093,55.257H31.446l6.663-6.663H50.05l6.5-6.5V48.7a1.49,1.49,0,0,0,1.493,1.493A1.457,1.457,0,0,0,59.538,48.7V39.159A2.559,2.559,0,0,0,56.979,36.6H47.6a1.49,1.49,0,0,0-1.493,1.493A1.457,1.457,0,0,0,47.6,39.585h7.356l-6.077,6.077H36.937l-6.663,6.663H20.093A1.49,1.49,0,0,0,18.6,53.817,1.445,1.445,0,0,0,20.093,55.257Z" transform="translate(-7.238 -15.643)"/></g></svg>