<svg xmlns="http://www.w3.org/2000/svg" width="41.483" height="50" viewBox="0 0 41.483 50"><defs><style>.a{fill:#3498e5;}</style></defs><path class="a" d="M50.443,10.353a2.1,2.1,0,0,0-1.435-.564l-5.587.205a8.89,8.89,0,0,0-2.05-3.332c-1.9-2-4.408-2.768-6.869-3.588a20.028,20.028,0,0,1-4.152-1.64,1.389,1.389,0,1,0-1.384,2.409,27.838,27.838,0,0,0,4.665,1.9c2.2.718,4.306,1.384,5.69,2.871A5.12,5.12,0,0,1,40.344,10.1l-7.689.256a1.861,1.861,0,0,0-1.333.564L10.152,32.19a1.949,1.949,0,0,0,0,2.768L25.889,50.7a1.981,1.981,0,0,0,1.384.564,2.076,2.076,0,0,0,1.384-.564L49.93,29.422a1.861,1.861,0,0,0,.564-1.333l.564-16.3A2.576,2.576,0,0,0,50.443,10.353ZM47.674,27.628l-20.4,20.4L12.766,33.574l20.4-20.4,8-.256v.718a10.147,10.147,0,0,1-1.845,5.382,1.994,1.994,0,0,0,0,2.666,1.366,1.366,0,0,0,1.025.461,1.438,1.438,0,0,0,.974-.359,1.37,1.37,0,0,0,.41-1.282,12.7,12.7,0,0,0,2.255-6.766v-.871l4.2-.154Z" transform="translate(-9.575 -1.259)"/></svg>