<?xml version="1.0" encoding="iso-8859-1"?>
<!-- Generator: Adobe Illustrator 19.0.0, SVG Export Plug-In . SVG Version: 6.00 Build 0)  -->
<svg version="1.1" id="Capa_1" xmlns="http://www.w3.org/2000/svg" xmlns:xlink="http://www.w3.org/1999/xlink" x="0px" y="0px"
	 viewBox="0 0 49.33 49.33" style="enable-background:new 0 0 49.33 49.33;" xml:space="preserve">
<g>
	<g>
		<path d="M30.778,21.072c0.002-0.193-0.08-0.24-0.255-0.239c-0.382,0.007-0.768,0.002-1.153,0.002
			c-0.31,0.001-0.312,0.002-0.312,0.306c0,1.279-0.002,2.559,0.002,3.838c0,0.226-0.011,0.444-0.047,0.664
			c-0.097,0.568-0.355,1.03-0.936,1.213c-0.637,0.199-1.246,0.162-1.747-0.344c-0.356-0.364-0.444-0.829-0.444-1.311
			c-0.008-1.36-0.007-2.722,0-4.082c0.002-0.206-0.054-0.295-0.275-0.287c-0.39,0.013-0.783,0.012-1.175,0.001
			c-0.203-0.006-0.268,0.068-0.265,0.27c0.009,0.754,0.003,1.509,0.003,2.263c0,0.651,0.003,1.302,0,1.953
			c-0.001,0.235,0.011,0.472,0.053,0.704c0.186,1.054,0.698,1.863,1.727,2.271c0.684,0.274,1.399,0.291,2.118,0.217
			c0.576-0.06,1.111-0.25,1.572-0.609c0.783-0.611,1.088-1.471,1.113-2.416C30.799,24.016,30.77,22.544,30.778,21.072z"/>
	</g>
</g>
<g>
	<g>
		<path d="M23.161,28.19c-0.514-0.755-1.029-1.515-1.554-2.265c-0.108-0.156-0.083-0.212,0.086-0.285
			c0.424-0.185,0.757-0.48,1.01-0.872c0.333-0.51,0.377-1.08,0.346-1.664c-0.042-0.777-0.381-1.387-1.041-1.808
			c-0.599-0.381-1.279-0.444-1.961-0.455c-0.999-0.016-1.998-0.004-2.996-0.004c-0.325,0-0.326,0.002-0.326,0.318
			c0,1.162,0,2.323,0,3.485s0,2.323,0,3.485c0,0.317,0.001,0.317,0.325,0.317c0.385,0.002,0.77-0.008,1.154,0.004
			c0.202,0.006,0.273-0.064,0.27-0.27c-0.01-0.628,0.001-1.259-0.006-1.888c-0.003-0.178,0.05-0.256,0.239-0.248
			c0.258,0.013,0.518,0.011,0.776,0c0.159-0.006,0.258,0.058,0.345,0.188c0.45,0.679,0.91,1.35,1.359,2.028
			c0.086,0.132,0.183,0.189,0.343,0.188c0.503-0.01,1.006-0.002,1.51-0.004c0.07,0,0.165,0.033,0.206-0.039
			C23.295,28.315,23.205,28.253,23.161,28.19z M20.376,24.477c-0.574,0.075-1.151,0.02-1.727,0.04
			c-0.136,0.003-0.182-0.06-0.18-0.188c0.003-0.296,0.001-0.591,0.001-0.886c0-0.282,0-0.562,0-0.843
			c0-0.094,0.008-0.187,0.135-0.183c0.612,0.015,1.228-0.061,1.836,0.039c0.581,0.094,0.905,0.488,0.892,1.036
			C21.32,24.018,20.94,24.403,20.376,24.477z"/>
	</g>
</g>
<g>
	<g>
		<path d="M36.581,24.351c-0.435-0.233-0.9-0.369-1.373-0.496c-0.401-0.108-0.805-0.198-1.178-0.387
			c-0.226-0.116-0.381-0.291-0.369-0.557c0.01-0.285,0.18-0.458,0.438-0.554c0.272-0.1,0.553-0.106,0.832-0.057
			c0.532,0.094,1.016,0.315,1.457,0.622c0.127,0.088,0.198,0.074,0.283-0.054c0.207-0.315,0.416-0.631,0.646-0.928
			c0.139-0.178,0.096-0.264-0.071-0.38c-0.948-0.653-1.989-0.911-3.132-0.776c-1.009,0.119-2.038,0.768-2.148,2.031
			c-0.066,0.754,0.094,1.429,0.754,1.899c0.412,0.293,0.886,0.435,1.36,0.579c0.497,0.152,1.011,0.236,1.478,0.469
			c0.311,0.157,0.406,0.315,0.383,0.629c-0.023,0.291-0.209,0.441-0.465,0.531c-0.32,0.117-0.653,0.112-0.984,0.061
			c-0.621-0.096-1.165-0.37-1.648-0.766c-0.137-0.111-0.224-0.096-0.328,0.036c-0.239,0.294-0.478,0.584-0.727,0.868
			c-0.13,0.148-0.101,0.238,0.046,0.357c0.886,0.707,1.898,1.037,3.019,1.054c0.109,0,0.223,0.008,0.332,0
			c0.453-0.034,0.897-0.119,1.299-0.339c0.804-0.435,1.176-1.111,1.18-2.029C37.669,25.326,37.313,24.738,36.581,24.351z"/>
	</g>
</g>
<g>
	<g>
		<path d="M49.156,24.477c-0.341-1.089-1.048-1.78-2.192-1.936c-1.145-0.155-2.105,0.2-2.794,1.161
			c-0.479,0.669-0.618,1.435-0.534,2.236c0.1,0.963,0.562,1.721,1.406,2.213c0.671,0.39,1.406,0.481,2.163,0.371
			c0.655-0.099,1.222-0.385,1.683-0.869c0.125-0.133,0.151-0.234-0.008-0.363c-0.23-0.186-0.453-0.379-0.665-0.585
			c-0.11-0.108-0.185-0.11-0.294-0.006c-0.265,0.25-0.583,0.396-0.941,0.463c-0.696,0.134-1.357-0.198-1.588-0.794
			c-0.068-0.18-0.028-0.238,0.162-0.234c0.584,0.006,1.168,0.002,1.754,0.002c0.576,0,1.153-0.008,1.729,0.002
			c0.212,0.004,0.291-0.08,0.293-0.285C49.335,25.386,49.297,24.924,49.156,24.477z M47.497,25.046
			c-0.348,0.001-0.693,0.001-1.041,0.001c-0.332,0-0.664,0.001-0.996-0.001c-0.082,0-0.173,0.007-0.143-0.127
			c0.173-0.79,0.822-1.148,1.44-1.004c0.523,0.122,0.784,0.569,0.882,1.005C47.67,25.055,47.578,25.046,47.497,25.046z"/>
	</g>
</g>
<g>
	<g>
		<path d="M43.86,20.836c-0.953,0.007-1.907,0.003-2.862,0.003c-0.961,0-1.924,0.005-2.886-0.002
			c-0.194-0.001-0.262,0.065-0.256,0.258c0.011,0.354,0.002,0.71,0.002,1.064c0.002,0.28,0.013,0.292,0.285,0.293
			c0.567,0,1.139,0,1.709,0c0.307,0,0.307,0.001,0.307,0.304c0.001,1.805,0.004,3.61-0.003,5.415
			c-0.001,0.217,0.069,0.286,0.28,0.279c0.36-0.014,0.724-0.003,1.086-0.005c0.347,0,0.347,0,0.347-0.341
			c0-1.791,0.004-3.581-0.005-5.371c0-0.227,0.07-0.292,0.293-0.287c0.584,0.013,1.168,0,1.752,0.006
			c0.171,0.002,0.238-0.059,0.234-0.231c-0.011-0.37-0.016-0.74,0.002-1.109C44.153,20.892,44.067,20.834,43.86,20.836z"/>
	</g>
</g>
<g>
	<g>
		<path d="M15.661,20.832c-0.947,0.009-1.894,0.004-2.841,0.004c-0.961,0-1.923,0.004-2.885-0.003
			c-0.195-0.001-0.281,0.055-0.274,0.265c0.013,0.361,0.012,0.725,0,1.087c-0.007,0.206,0.071,0.27,0.271,0.267
			c0.576-0.008,1.154-0.002,1.731-0.002c0.303,0,0.303,0,0.303,0.308c0,1.798,0.003,3.596-0.004,5.393
			c-0.001,0.217,0.055,0.307,0.285,0.296c0.377-0.015,0.755-0.003,1.132-0.005c0.303,0,0.303-0.001,0.303-0.312
			c0.001-1.798,0.004-3.595-0.003-5.393c-0.001-0.219,0.052-0.299,0.283-0.293c0.591,0.015,1.184,0.001,1.775,0.008
			c0.167,0.003,0.218-0.054,0.214-0.218c-0.01-0.37-0.016-0.74,0.001-1.11C15.961,20.899,15.885,20.831,15.661,20.832z"/>
	</g>
</g>
<g>
	<g>
		<path d="M8.074,20.328H0.599C0.268,20.328,0,20.596,0,20.927v7.475c0,0.332,0.268,0.6,0.599,0.6h7.475
			c0.331,0,0.599-0.268,0.599-0.6v-7.475C8.673,20.596,8.405,20.328,8.074,20.328z M5.915,24.521
			c-0.018-0.257-0.104-0.491-0.244-0.708c-0.341-0.532-0.973-0.807-1.596-0.697c-0.263,0.046-0.502,0.147-0.702,0.314
			c-0.34,0.281-0.548,0.645-0.583,1.096c-0.04,0.501,0.123,0.925,0.477,1.276c0.433,0.43,1.139,0.553,1.7,0.312
			c0.159-0.068,0.307-0.154,0.433-0.275c0.045-0.044,0.08-0.051,0.129,0.001c0.098,0.108,0.202,0.21,0.313,0.309
			c0.053,0.045,0.051,0.103-0.004,0.147c-0.674,0.571-1.433,0.734-2.261,0.423c-0.793-0.299-1.262-0.895-1.398-1.729
			c-0.088-0.53,0.02-1.034,0.313-1.49c0.38-0.591,0.919-0.937,1.614-1.02c0.37-0.045,0.73,0.006,1.08,0.151
			c0.49,0.204,0.854,0.541,1.11,0.997c0.144,0.257,0.226,0.538,0.247,0.833c0.002,0.023,0.003,0.045,0.004,0.063L5.915,24.521z
			 M5.274,24.521H3.436c0.073-0.438,0.429-0.761,0.875-0.79C4.764,23.703,5.214,24.076,5.274,24.521z M7.224,24.663
			c-0.011-0.232-0.051-0.464-0.119-0.686c-0.138-0.46-0.384-0.868-0.729-1.212c-0.388-0.388-0.852-0.645-1.379-0.766
			c-0.228-0.052-0.454-0.078-0.674-0.078c-0.458,0-0.9,0.114-1.315,0.339c-0.845,0.457-1.353,1.18-1.512,2.149
			c-0.014,0.084-0.019,0.169-0.021,0.254H0.936c0.015-0.486,0.133-0.948,0.35-1.374c0.458-0.896,1.177-1.493,2.136-1.775
			c0.362-0.107,0.729-0.15,1.084-0.128c0.839,0.052,1.565,0.357,2.158,0.905c0.573,0.531,0.929,1.192,1.059,1.967
			c0.018,0.105,0.024,0.216,0.03,0.323c0.001,0.028,0.003,0.055,0.004,0.082H7.224z"/>
	</g>
</g>
<g>
</g>
<g>
</g>
<g>
</g>
<g>
</g>
<g>
</g>
<g>
</g>
<g>
</g>
<g>
</g>
<g>
</g>
<g>
</g>
<g>
</g>
<g>
</g>
<g>
</g>
<g>
</g>
<g>
</g>
</svg>
