<svg xmlns="http://www.w3.org/2000/svg" width="20" height="16.252" viewBox="0 0 20 16.252"><defs><style>.a{fill:#3498e5;}</style></defs><path class="a" d="M21.54,5.912a8.191,8.191,0,0,1-2.352.66,4.11,4.11,0,0,0,1.8-2.275,8.261,8.261,0,0,1-2.6,1A4.039,4.039,0,0,0,15.364,4a4.1,4.1,0,0,0-4.082,4.1,4.263,4.263,0,0,0,.105.937A11.658,11.658,0,0,1,2.936,4.755a4.086,4.086,0,0,0,1.272,5.459,4.056,4.056,0,0,1-1.864-.478v.029A4.1,4.1,0,0,0,5.632,13.79a4.021,4.021,0,0,1-1.845.067,4.092,4.092,0,0,0,3.824,2.849,8.147,8.147,0,0,1-5.1,1.759,8.339,8.339,0,0,1-.975-.057,11.61,11.61,0,0,0,6.291,1.845A11.6,11.6,0,0,0,19.5,8.579c0-.182,0-.354-.01-.535A8.2,8.2,0,0,0,21.54,5.912Z" transform="translate(-1.54 -4)"/></svg>