<svg xmlns="http://www.w3.org/2000/svg" xmlns:xlink="http://www.w3.org/1999/xlink" width="289.786" height="226.746" viewBox="0 0 289.786 226.746"><defs><style>.a,.j,.l,.n{fill:#3498E5;}.a,.d,.g,.o,.p{opacity:0.1;}.b{fill:url(#a);}.c{fill:#efb7b9;}.e{fill:#dce6f2;}.f{fill:#965d7b;}.h{fill:#444053;}.i{fill:#a36468;}.k,.l{opacity:0.05;}.m,.o{fill:#094D82;}.n{opacity:0.9;}.p{fill:#fff;}.q{fill:#a8a8a8;}.r{opacity:0.2;}</style><linearGradient id="a" y1="0.5" x2="1" y2="0.5" gradientUnits="objectBoundingBox"><stop offset="0" stop-color="gray" stop-opacity="0.251"/><stop offset="0.54" stop-color="gray" stop-opacity="0.122"/><stop offset="1" stop-color="gray" stop-opacity="0.102"/></linearGradient></defs><g transform="translate(0.005 -0.003)"><ellipse class="a" cx="50.549" cy="9.576" rx="50.549" ry="9.576" transform="translate(51.1 203.206)"/><path class="a" d="M263.594,87.009c-18.578-.643-36.271-6.642-53.167-13.2S176.8,59.975,158.664,56.5c-11.663-2.236-25-2.555-34.4,3.691-9.045,6.028-11.967,16.4-13.537,26.041-1.183,7.251-1.877,14.883,1.361,21.672,2.25,4.713,6.24,8.675,9,13.19,9.607,15.707,2.816,35.077-7.592,50.414-4.88,7.193-10.549,14.065-14.318,21.715s-5.511,16.445-2.213,24.27c3.267,7.75,11.054,13.56,19.49,17.65,17.134,8.31,37.316,10.687,57.01,12.036,43.582,2.98,87.394,1.691,131.091.4,16.172-.476,32.413-.962,48.321-3.462,8.835-1.389,17.955-3.594,24.37-8.916,8.141-6.754,10.159-18.19,4.7-26.658-9.151-14.209-34.446-17.737-40.85-32.982-3.519-8.393.095-17.739,5.213-25.521,10.977-16.7,29.373-31.345,30.341-50.428.666-13.107-8.178-26.233-21.853-32.436-14.332-6.5-34.21-5.684-44.779,5.078C299.133,83.318,280,87.581,263.594,87.009Z" transform="translate(-95.23 -55.03)"/><path class="b" d="M407.723,227.391l-8.792-5.928h0l4.435-6.6-23.222-1.851-8.344,6.453-10.446-5.856-8.712,1.048-.1-2.3a64.809,64.809,0,0,0-.72-7.147c.037-.718.063-1.541.06-2.437,0-3.775-.511-8.778-2.756-12.113l.517-4.644-4.191-4.952a31.681,31.681,0,0,1,2.3-3.864c.144-.207.287-.408.442-.6a10.422,10.422,0,0,0,9.731-10.334,6.61,6.61,0,0,0-.029-.755,2.728,2.728,0,0,0-.032-.3c.531.287,1.068.574,1.6.861.1.144.215.287.342.456h0l.026.032.161.2.052.06c.057.069.118.135.178.2l.04.046c.152.169.313.342.485.511a.512.512,0,0,1,.057.055l.215.2.06.055c.184.164.379.321.574.471l.063.046.247.169.08.052c.095.057.192.118.287.172l.034.02c.112.06.227.118.342.172l.057.023q.146.063.287.121l.089.032c.1.034.2.066.3.095l.063.017c.126.032.253.057.382.077h.014a3.126,3.126,0,0,0,.367.037h.083a3.16,3.16,0,0,0,.33,0h.072a3.4,3.4,0,0,0,.41-.049,4.529,4.529,0,0,0,1.808-.649,1.577,1.577,0,0,0,.367-.342,1.353,1.353,0,0,0-.057-1.576h0c-.224-.534-1.676-.91-1.676-.91s-4.593-1.917-4.593-3.445-1.148-9.45-13-11.261c0,0-7.71-.433-9.877,3.694l-.046.482c-.637.4-1.165,1.2-1.794,1.435a2.931,2.931,0,0,0-.778.287V157h0a.741.741,0,0,0-.175.227,2.3,2.3,0,0,0-.238.861,3.244,3.244,0,0,1-.376,1.042,2.319,2.319,0,0,1-.172.264h0l-.049.078a2.1,2.1,0,0,0,.976-.158,4.861,4.861,0,0,1-.287,1.148.953.953,0,0,0,.884-.528v-.023l.037-.052a2.426,2.426,0,0,0,.178-.416l-.032.034c.057-.187.109-.376.172-.56a.877.877,0,0,1,.141-.287.694.694,0,0,1,.594-.2l-.118,2.489h.052a3.4,3.4,0,0,1-.253.522c-.408.66-1.148,1.111-1.421,1.834a2.7,2.7,0,0,0-.132,1.085c0,.215.026.433.043.649V165a2.421,2.421,0,0,1-.258,1.582c-.212.316-.554.554-.672.913a.889.889,0,0,0-.043.31,3.481,3.481,0,0,0,.2.921.04.04,0,0,0,0-.017,1.4,1.4,0,0,1,.049.677c-.129.574-.827,1.053-.792,1.6a.616.616,0,0,0,.032.212,1.162,1.162,0,0,0,.649.574,2.526,2.526,0,0,0,1.458.322,1.917,1.917,0,0,0,.545-.187c-.2.462-.408.919-.617,1.352-.032.069-.066.138-.1.207,0,0-1.774-1.186-2.781,1.231a5.362,5.362,0,0,0-.623,1.619,3.851,3.851,0,0,1-.212.666,4.286,4.286,0,0,1-1.917,1.722c-2.055.941-10.357,11.3-10.5,13.976a15.642,15.642,0,0,1-.528,3.094,18.413,18.413,0,0,0-.494,7.317,14,14,0,0,0,.508,2.334,52.287,52.287,0,0,1,1.47,7.676l.953,8.675a24.691,24.691,0,0,0,.155,3.585c-.973,1.111-4.88,5.741-3.387,7,1.148.993,3.158.83,4.286.626-.95,2.351-2.446,6.438-2.644,9.246-.287,4.154.491,9.656,1.722,11.769s5.336,7.532,5.336,7.532-.192,7.434,1.275,10.136,2.058,8.3,2.058,8.3,1.369,4.73.683,6.47,1.272,3.186-.784,4.343-4.685,27.229-4.685,27.229-1.059,17.088,0,17.958a1.078,1.078,0,0,0,.181.106v5.741s-.735,1.206,2.253,1.45c2.047.164,7.848.534,11.29.749l2.667.166s6.315,1.257,9.105,0,7.736-1.229,7-4.55a9.445,9.445,0,0,0-.39-1.329c-.807-2.061-2.176-2.3-4.7-2.871-.146-.032-.287-.06-.416-.083-2.658-.462-3.531.775-5.02-.835-1.295-1.392-5.417-2.951-6.82-3.445.034-.1.077-.2.112-.31a2.1,2.1,0,0,1-1.065-.52l3.8.241,2.265.141s5.368,1.071,7.75,0,6.573-1.042,5.948-3.864a8.093,8.093,0,0,0-.33-1.131c-.686-1.751-1.851-1.943-4-2.428-.123-.026-.238-.052-.353-.072-2.259-.393-3,.657-4.266-.709-1.085-1.165-4.509-2.472-5.741-2.916,0-.637-.861-1.544-1.4-2.454-.637-1.062.54-4.779.54-4.779l.672-15.423a2.978,2.978,0,0,1,.8-.23s3.037-2.9,2.351-5.988a19.83,19.83,0,0,1-.218-2.822,14.5,14.5,0,0,0,2.764-3.14c.637-1.375,0-8.037,0-8.037V251.156l5.081.514,4.61.474,1.4.143,4.61.465,10.595,1.071,9.547-1.808,4.131-.781,8.494-1.607V228.844ZM337.8,158.526l-.591-.063C337.4,158.472,337.606,158.509,337.8,158.526Z" transform="translate(-254.121 -123.553)"/><path class="c" d="M503.263,437.95c-2.87,4.108-13.19,1.932-13.19,1.932l-8-7.483L481,431.385l1.805-3.835s.574.158,1.559.439C489.534,429.491,505.686,434.5,503.263,437.95Z" transform="translate(-370.269 -320.617)"/><path class="d" d="M484.358,427.989a16.839,16.839,0,0,1-2.282,4.409L481,431.385l1.805-3.835S483.385,427.708,484.358,427.989Z" transform="translate(-370.269 -320.617)"/><path class="e" d="M379.708,278.12s-7.371,3.269-7.01,11.3a132.385,132.385,0,0,0,1.688,15.432s-1.507,12.082,4.768,15.2,12.082,5.675,12.082,5.675,9.817,1.056,11.037,1.493,5.032-6.235,4.329-7.274-9.714-3.218-10.862-4.952a9.585,9.585,0,0,0-3.8-2.8s-2.741-1.659-2.928-3.158a6.816,6.816,0,0,1,.72-3.272c.184-.657.649-7,.649-7S393.472,276.16,379.708,278.12Z" transform="translate(-293.045 -213.995)"/><path class="d" d="M391.248,370.39s-10.113,1.694-9.134,5.233A21.44,21.44,0,0,1,391.248,370.39Z" transform="translate(-299.72 -279.865)"/><path class="d" d="M402.912,375.38s-5.56,4.538-4.472,4.771S402.912,375.38,402.912,375.38Z" transform="translate(-311.307 -283.422)"/><path class="d" d="M421.515,380.89s-1.49,3.051-.574,2.845S421.515,380.89,421.515,380.89Z" transform="translate(-327.238 -287.351)"/><path class="d" d="M408.428,322.49l-.614-.175a1.755,1.755,0,0,0,.08-1.254c-.7-1.039-9.708-3.215-10.853-4.952a9.534,9.534,0,0,0-3.8-2.8s-2.741-1.659-2.928-3.158a6.816,6.816,0,0,1,.72-3.272c.184-.657.649-7.007.649-7.007S394.765,277.28,381,279.24c0,0-7.371,3.272-7.012,11.3a131.988,131.988,0,0,0,1.691,15.432s-1.507,12.082,4.768,15.2,12.082,5.675,12.082,5.675,9.814,1.053,11.037,1.493c.462.166,1.3-.692,2.116-1.871l.465.433,8,7.48s10.319,2.179,13.19-1.929C429.759,328.994,413.61,323.988,408.428,322.49Z" transform="translate(-293.966 -214.793)"/><path class="f" d="M378.078,169.34a2.44,2.44,0,0,0-.8.307c-.287.238-.287.646-.359,1a3.3,3.3,0,0,1-.574,1.372,2.064,2.064,0,0,0,.956-.158,4.923,4.923,0,0,1-.287,1.148.93.93,0,0,0,.861-.525,5.531,5.531,0,0,0,.359-1.008.829.829,0,0,1,.138-.287c.264-.313.755-.172,1.163-.132a1.909,1.909,0,0,0,1.745-.838c.433-.657.459-2.339-.574-2.517C379.631,167.525,378.959,169.012,378.078,169.34Z" transform="translate(-295.658 -135.348)"/><g class="g" transform="translate(80.735 34.224)"><path d="M378.374,174.678c.026-.141.043-.287.075-.428h0a1.684,1.684,0,0,0-.359,1,3.158,3.158,0,0,1-.169.606A3.29,3.29,0,0,0,378.374,174.678Z" transform="translate(-377.512 -174.25)"/><path d="M377.453,181.148A4.775,4.775,0,0,0,377.74,180a2.055,2.055,0,0,1-.91.158,3.318,3.318,0,0,1-.33.574,2.044,2.044,0,0,0,.953-.155,4.776,4.776,0,0,1-.287,1.148.933.933,0,0,0,.861-.525,2.142,2.142,0,0,0,.172-.41A.861.861,0,0,1,377.453,181.148Z" transform="translate(-376.5 -178.35)"/><path d="M385.192,175.453c-.408-.04-.9-.181-1.165.132a.885.885,0,0,0-.138.287c-.026.075-.049.152-.069.23.273-.215.715-.1,1.085-.063a1.918,1.918,0,0,0,1.745-.838,1.59,1.59,0,0,0,.192-.451A1.912,1.912,0,0,1,385.192,175.453Z" transform="translate(-381.719 -174.606)"/></g><path class="e" d="M313.554,201l4.377,5.264-.571,5.313-5.29-8.281Z" transform="translate(-222.494 -143.301)"/><path class="d" d="M317.929,206.264l-.537,5-.034.316-4.774-7.475-.514-.807.149-.233L313.551,201l.3.356Z" transform="translate(-222.494 -143.301)"/><path class="c" d="M390.592,211.986c-1.481.425-2.9,1.883-4.128,3.654a31.173,31.173,0,0,0-2.227,3.829c-.4.809-.761,1.587-1.056,2.265l-.207.482c-.5,1.18-.778,1.969-.778,1.969s-11.338-8.525-9.544-9.1c.6-.192,1.4-1.484,2.179-3.112l.1-.207c.5-1.045.985-2.21,1.418-3.307.887-2.253,1.544-4.211,1.544-4.211S395.113,210.694,390.592,211.986Z" transform="translate(-292.885 -161.415)"/><path class="h" d="M459.26,202.58s2.618,4.736,6.134,4.09,2.07-2.543,2.07-2.543Z" transform="translate(-354.769 -160.224)"/><path class="i" d="M389.217,745.968c-2.319,1.059-7.564,0-7.564,0l-2.21-.138c-2.87-.184-7.676-.494-9.375-.631-2.48-.2-1.871-1.22-1.871-1.22v-6.14l12.033-3.048s4.756,1.627,6.06,3.048c1.237,1.355,1.96.313,4.168.7.109.02.224.043.344.072,2.1.479,3.232.669,3.9,2.406a8.06,8.06,0,0,1,.324,1.12C395.649,744.934,391.533,744.914,389.217,745.968Z" transform="translate(-289.798 -539.665)"/><path class="d" d="M394.7,750.337a8.993,8.993,0,0,1-1.355.695c-1.579.72-3.08,1.6-4.676,2.279a10.934,10.934,0,0,1-5.043,1.036,7.524,7.524,0,0,0-2.693-.029,6.219,6.219,0,0,0-1.5.83c-2.87-.184-7.676-.494-9.375-.632-2.48-.2-1.871-1.22-1.871-1.22v-.718c.089,0,.189-.026.3-.034a5.419,5.419,0,0,1,1.751.261c1.246.339,2.486.672,3.732,1a2.948,2.948,0,0,1,1.435-1.831,4.575,4.575,0,0,1,2.314-.531c1.932.026,3.76.941,5.689,1.033a3.135,3.135,0,0,0,1.576-.264c.264-.132.5-.324.755-.471a5.509,5.509,0,0,1,1.3-.439,28.649,28.649,0,0,0,3.717-1.2c.344-.135.746-.379.7-.746-.06-.488-.827-.545-1.028-.993a.574.574,0,0,1,.023-.508c.109.02.224.043.344.072C392.9,748.411,394.033,748.6,394.7,750.337Z" transform="translate(-289.798 -548.983)"/><path class="i" d="M371.435,787.855c-2.727,1.246-8.9,0-8.9,0l-2.6-.152c-3.364-.215-9.031-.574-11.031-.743-2.919-.241-2.2-1.435-2.2-1.435v-7.236l14.16-3.588s5.6,1.915,7.13,3.588c1.455,1.593,2.3.367,4.906.827.129.023.264.052.4.083,2.466.574,3.8.789,4.593,2.833a9.215,9.215,0,0,1,.382,1.317C378.993,786.638,374.162,786.612,371.435,787.855Z" transform="translate(-274.468 -568.119)"/><path class="d" d="M377.894,793.032a10.688,10.688,0,0,1-1.593.818c-1.857.847-3.625,1.88-5.5,2.681a12.9,12.9,0,0,1-5.936,1.22,8.663,8.663,0,0,0-3.157-.034,7.322,7.322,0,0,0-1.765.987c-3.364-.215-9.031-.574-11.031-.743-2.919-.241-2.2-1.435-2.2-1.435v-.844a3.558,3.558,0,0,1,.359-.04,6.3,6.3,0,0,1,2.061.307l4.389,1.183a3.473,3.473,0,0,1,1.7-2.156,5.357,5.357,0,0,1,2.724-.626c2.273.032,4.423,1.108,6.694,1.217a3.707,3.707,0,0,0,1.849-.307c.313-.158.574-.385.89-.554a6.244,6.244,0,0,1,1.53-.517,34.383,34.383,0,0,0,4.352-1.412c.4-.161.878-.448.824-.878-.072-.574-.973-.643-1.211-1.171a.692.692,0,0,1,.029-.6c.129.023.264.052.4.083C375.767,790.764,377.1,790.988,377.894,793.032Z" transform="translate(-274.468 -579.12)"/><path class="h" d="M388.187,647.54l-.766,18.035s-1.148,3.683-.525,4.736,1.673,2.1,1.292,2.727-4.974,7.357-6.459,4.773-2.948-13.778-2.948-13.778l1.369-13.827Z" transform="translate(-297.391 -477.46)"/><path class="h" d="M412.436,491l2.13,2.848v24.766s.623,6.6,0,7.966-3.78,4.09-3.78,4.09l-2.655-13.635.574-14.424Z" transform="translate(-318.316 -365.854)"/><path class="d" d="M388.187,647.54l-.766,18.035s-1.148,3.683-.525,4.736,1.673,2.1,1.292,2.727-4.974,7.357-6.459,4.773-2.948-13.778-2.948-13.778l1.369-13.827Z" transform="translate(-297.391 -477.46)"/><path class="d" d="M412.436,491l2.13,2.848v24.766s.623,6.6,0,7.966-3.78,4.09-3.78,4.09l-2.655-13.635.574-14.424Z" transform="translate(-318.316 -365.854)"/><path class="h" d="M356.724,437.089v13.4l-2.391,10.428s-.766,25.165-.1,28.225-2.3,5.933-2.3,5.933-1.722.192-1.722,1.53-2.87,5.167-2.87,5.167l.095,7.463s1.246,13.971-.669,16.649.669,3.063.669,3.063c-2.391,7.845-13.873,6.028-14.909,5.167s0-17.8,0-17.8,2.566-25.834,4.576-26.982.1-2.583.766-4.306-.669-6.41-.669-6.41-.574-5.552-2.009-8.23-1.246-10.047-1.246-10.047-4.019-5.359-5.213-7.463-1.963-7.558-1.676-11.674c.2-2.782,1.656-6.832,2.583-9.163.445-1.117.766-1.84.766-1.84l.273.072,15.678,4.1Z" transform="translate(-260.474 -322.506)"/><path class="d" d="M400.239,211.936c-1.481.425-2.9,1.883-4.128,3.654h-.321a10.253,10.253,0,0,1-8.9-5.147,10.1,10.1,0,0,1-.9-2.052c.887-2.253,1.544-4.211,1.544-4.211S404.76,210.644,400.239,211.936Z" transform="translate(-302.531 -161.365)"/><path class="c" d="M404.9,180.693a10.262,10.262,0,1,1-19.2-5.029,10.033,10.033,0,0,1,1.085-1.567,10.385,10.385,0,0,1,2.36-2.072,10.262,10.262,0,0,1,15.739,7.917C404.895,180.193,404.9,180.443,404.9,180.693Z" transform="translate(-301.383 -137.297)"/><path class="d" d="M387.782,248.047l-.034.316-4.774-7.463c-.5,1.18-.778,1.969-.778,1.969s-11.338-8.537-9.544-9.111c.6-.192,1.4-1.484,2.179-3.112l.1-.207c.832,2.48,5.669,7.437,7.681,9.424.233.23.425.419.574.557l.307.287.161.161C384.384,241.623,387.472,244.953,387.782,248.047Z" transform="translate(-292.885 -180.087)"/><path class="e" d="M354.3,273.164l-.522,16.812-.092,2.994s-6.189-.574-11.964-1.206c-4.65-.508-9.033-1.056-9.708-1.378a18.273,18.273,0,0,0-4.162-.916c-1.125-.152-2.009-.232-2.009-.232s-.33.1-.838.189c-1.108.2-3.054.365-4.188-.62-1.45-1.26,2.36-5.839,3.31-6.938l.21-.238-.359-3.315-.933-8.6a52.456,52.456,0,0,0-1.435-7.607,14.03,14.03,0,0,1-.5-2.311,18.509,18.509,0,0,1,.482-7.251,15.807,15.807,0,0,0,.517-3.069c.143-2.655,8.253-12.917,10.262-13.85a4.26,4.26,0,0,0,2.055-2.05,3.913,3.913,0,0,0,.313-.893c.861-3.732,3.04-2.25,3.04-2.25.525,2.919,8.657,10.647,8.657,10.647l.161.161c.807.827,4.4,4.708,4.145,8.02a9.722,9.722,0,0,0,.542,3.628,61.355,61.355,0,0,1,2.827,16.075Z" transform="translate(-255.83 -179.88)"/><path class="d" d="M388.767,310.45s-2.009,4.88-3.516,5.669S389.485,317.784,388.767,310.45Z" transform="translate(-301.824 -237.13)"/><path class="d" d="M391.973,342.2s-4.593.574-4.593,1.435S391.973,342.2,391.973,342.2Z" transform="translate(-303.522 -259.766)"/><path class="d" d="M398.363,361.7s-6.674,14.209-8.54,14.639S398.363,361.7,398.363,361.7Z" transform="translate(-305.105 -273.669)"/><path class="d" d="M380.182,243.2l-5.52,2.4L368,235.533a3.912,3.912,0,0,0,.313-.893c.861-3.732,3.04-2.25,3.04-2.25.525,2.919,8.657,10.647,8.657,10.647Z" transform="translate(-289.705 -181.27)"/><path class="e" d="M381.182,241.2l-5.52,2.4L369,233.533a3.914,3.914,0,0,0,.313-.893c.861-3.732,3.04-2.25,3.04-2.25.525,2.919,8.657,10.647,8.657,10.647Z" transform="translate(-290.418 -179.844)"/><path class="d" d="M361.09,336.947s-6.189-.574-11.964-1.206l10.362,2.713v3.157c-.454.41-.847.623-1.1.514-1.194-.5-10.939-2.081-10.939-2.081s-5.661-2.87-11.769-6.315a4.72,4.72,0,0,1-.431-.27,6.786,6.786,0,0,1-1.808-1.811,12.855,12.855,0,0,1-1.917-5.79,25.038,25.038,0,0,1-.149-3.554,29.133,29.133,0,0,1,.367-4.016,132.053,132.053,0,0,1-.861-15.5c.072-8.037,7.607-10.908,7.607-10.908,13.85-1.22,9.556,21.17,9.556,21.17s-.8,6.315-1.019,6.961a6.814,6.814,0,0,0-.9,3.229c.106,1.507,2.753,3.31,2.753,3.31a9.665,9.665,0,0,1,3.648,3.005c.775,1.323,5.81,3.117,8.654,4.4Z" transform="translate(-263.239 -223.857)"/><path class="d" d="M403.823,171a3.25,3.25,0,0,1-.287,1.372,8.494,8.494,0,0,1-.511,1.022,4.707,4.707,0,0,1-1.257,1.562,6.431,6.431,0,0,1-2.3.8,3.323,3.323,0,0,0-2.075,1.177,4.118,4.118,0,0,0-.485,1.407,3.025,3.025,0,0,1-.574,1.361,1.128,1.128,0,0,1-1.343.322,1.358,1.358,0,0,1-.52-.669,9.59,9.59,0,0,1-.543-2.351,5,5,0,0,0-.807-2.253,2.018,2.018,0,0,0-2.118-.812,2.041,2.041,0,0,0-1.148,1.114,6.385,6.385,0,0,0-.433,1.584q-.534,2.922-1.26,5.81a.533.533,0,0,1-.095.218.413.413,0,0,1-.287.121c-.643.086-1.26-.365-1.909-.316a1.1,1.1,0,0,0-.2.032,10.256,10.256,0,0,1,1.036-11.712l.052-.014a3.094,3.094,0,0,0,1.148-.723,12.11,12.11,0,0,0,1.148-1.329l.23-.287a13.093,13.093,0,0,1,2.239-2.127,2.3,2.3,0,0,1,.764-.413,2.263,2.263,0,0,1,.723-.023,18.246,18.246,0,0,0,2.988.112,19.169,19.169,0,0,1,2.1-.212c1.817.052,3.367,1.335,4.515,2.741A4.246,4.246,0,0,1,403.823,171Z" transform="translate(-301.333 -133.98)"/><path class="f" d="M376.974,171.927c-.4.654-1.119,1.1-1.389,1.817-.4,1.042.273,2.339-.342,3.269-.2.313-.54.545-.654.9-.2.606.339,1.252.2,1.874s-.959,1.148-.741,1.757a1.148,1.148,0,0,0,.632.574,2.469,2.469,0,0,0,1.435.319c.784-.129,1.366-.9,2.161-.956.646-.046,1.263.4,1.906.319a.431.431,0,0,0,.287-.123.5.5,0,0,0,.095-.218q.723-2.885,1.263-5.81a6.26,6.26,0,0,1,.431-1.584,2.058,2.058,0,0,1,1.148-1.114,2.024,2.024,0,0,1,2.118.812,4.971,4.971,0,0,1,.809,2.253,9.719,9.719,0,0,0,.54,2.351,1.372,1.372,0,0,0,.522.672,1.124,1.124,0,0,0,1.341-.321,3,3,0,0,0,.574-1.363,4.1,4.1,0,0,1,.485-1.4,3.33,3.33,0,0,1,2.075-1.177,6.5,6.5,0,0,0,2.3-.8,4.724,4.724,0,0,0,1.257-1.559,4.589,4.589,0,0,0,.786-2.4,4.4,4.4,0,0,0-1.177-2.483c-1.148-1.407-2.7-2.69-4.518-2.738a17.862,17.862,0,0,0-2.1.212,17.963,17.963,0,0,1-2.988-.115,2.347,2.347,0,0,0-.723.026,2.165,2.165,0,0,0-.761.413,13.1,13.1,0,0,0-2.242,2.124,16.453,16.453,0,0,1-1.384,1.607,3.115,3.115,0,0,1-1.148.726c-.287.08-.574.023-.847.112C377.479,170.174,377.367,171.279,376.974,171.927Z" transform="translate(-293.992 -133.289)"/><path class="d" d="M465.394,206.668c-2.3.422-4.2-1.435-5.253-2.79a11.26,11.26,0,0,1-.881-1.3l7.882,1.487.319.06S468.91,206.025,465.394,206.668Z" transform="translate(-354.769 -160.224)"/><g class="g" transform="translate(80.007 36.449)"><path d="M376.112,211.432a2.39,2.39,0,0,0-.167-1.1c0,.029-.026.057-.034.086a2.137,2.137,0,0,0,.149,1.183A.859.859,0,0,0,376.112,211.432Z" transform="translate(-375.321 -202.198)"/><path d="M379.056,197.8a6.383,6.383,0,0,0,.023,1.191A6.393,6.393,0,0,0,379.056,197.8Z" transform="translate(-377.582 -193.265)"/><path d="M395.373,183.851a4.706,4.706,0,0,1-1.257,1.562,6.411,6.411,0,0,1-2.3.8,3.316,3.316,0,0,0-2.075,1.177,4.137,4.137,0,0,0-.485,1.407,3.006,3.006,0,0,1-.574,1.363,1.12,1.12,0,0,1-1.341.321,1.372,1.372,0,0,1-.522-.672,9.558,9.558,0,0,1-.54-2.351,4.959,4.959,0,0,0-.809-2.253,2.018,2.018,0,0,0-2.118-.812,2.049,2.049,0,0,0-1.148,1.114,6.258,6.258,0,0,0-.431,1.585q-.537,2.925-1.263,5.81a.5.5,0,0,1-.095.218.43.43,0,0,1-.287.123c-.643.083-1.26-.365-1.906-.319-.8.057-1.378.827-2.161.953a2.425,2.425,0,0,1-1.435-.319,1.535,1.535,0,0,1-.525-.373.775.775,0,0,0-.106.669,1.119,1.119,0,0,0,.631.574,2.426,2.426,0,0,0,1.435.319c.784-.126,1.366-.9,2.161-.953.646-.046,1.263.4,1.906.319a.43.43,0,0,0,.287-.123.5.5,0,0,0,.095-.218q.723-2.87,1.263-5.81a6.259,6.259,0,0,1,.431-1.585,2.049,2.049,0,0,1,1.148-1.114,2.019,2.019,0,0,1,2.118.812,4.97,4.97,0,0,1,.809,2.253,9.722,9.722,0,0,0,.54,2.351,1.372,1.372,0,0,0,.522.672,1.124,1.124,0,0,0,1.341-.322,3.006,3.006,0,0,0,.574-1.363,4.136,4.136,0,0,1,.485-1.406,3.344,3.344,0,0,1,2.075-1.177,6.546,6.546,0,0,0,2.3-.8,4.707,4.707,0,0,0,1.257-1.561,4.571,4.571,0,0,0,.786-2.394,3.073,3.073,0,0,0-.034-.327,5.641,5.641,0,0,1-.752,1.851Z" transform="translate(-373.964 -182)"/></g><path class="d" d="M406.87,175.689a10.139,10.139,0,0,1,1.277,4.263c-2.558-1.435-4.963-3.011-6.177-3.559-2.115-.956-10.026-.812-13-.723a10.033,10.033,0,0,1,1.085-1.567,10.385,10.385,0,0,1,2.368-2.072,10.268,10.268,0,0,1,14.461,3.654Z" transform="translate(-304.656 -137.303)"/><path class="d" d="M466.112,205.451c-1.381.425-3.634-.4-5.971-1.573a11.26,11.26,0,0,1-.881-1.3l7.882,1.487C467.665,204.423,467.8,204.931,466.112,205.451Z" transform="translate(-354.769 -160.224)"/><path class="h" d="M395.724,154.048s-7.535-.431-9.653,3.66l-.342,3.625-.574-.063-.115,2.466s11.516-.5,14.137.68,10.764,7.142,14.028,6.137-.287-1.938-.287-1.938-4.492-1.9-4.492-3.4S407.312,155.842,395.724,154.048Z" transform="translate(-301.854 -125.613)"/><path class="d" d="M371.63,622.28s4.808,4.664,6.889,4.306C378.519,626.586,372.635,626.083,371.63,622.28Z" transform="translate(-292.293 -459.45)"/><path class="d" d="M368.13,629.81s.431,2.4,1.579,2.164S368.13,629.81,368.13,629.81Z" transform="translate(-289.798 -464.819)"/><path class="d" d="M379.96,769.53s-6.826,5.31-5.675,5.454S379.96,769.53,379.96,769.53Z" transform="translate(-294.093 -564.433)"/><path class="j" d="M330.96,338.4l22.1-3.6v20.926l-21-1.1Z" transform="translate(-235.962 -238.694)"/><path class="k" d="M330.96,338.4l22.1-3.6v20.926l-21-1.1Z" transform="translate(-235.962 -238.694)"/><path class="j" d="M407.96,334.8l26.506,1.983L433,354.994l-25.039.732Z" transform="translate(-290.859 -238.694)"/><path class="d" d="M407.96,334.8l26.506,1.983L433,354.994l-25.039.732Z" transform="translate(-290.859 -238.694)"/><path class="j" d="M416.109,312.55l-8.149,6.387,26.506,1.984,4.332-6.536Z" transform="translate(-290.859 -222.831)"/><path class="j" d="M303.08,317.013l19.9-2.423,10.207,5.8-22.1,3.6Z" transform="translate(-216.085 -224.286)"/><path class="j" d="M357.908,349.167v28.61l-10.354-1.062-4.5-.459-1.372-.144-4.5-.462-6.217-.637V347.33l22.1,1.5Z" transform="translate(-235.962 -247.628)"/><path class="j" d="M446.5,341.71v27.9l-8.3,1.593-4.036.775-9.326,1.791V345.16Z" transform="translate(-302.894 -243.621)"/><path class="l" d="M446.5,341.71v27.9l-8.3,1.593-4.036.775-9.326,1.791V345.16Z" transform="translate(-302.894 -243.621)"/><path class="m" d="M303.08,353.352l8-6.022,26.948,1.837-3.967,6.682Z" transform="translate(-216.085 -247.628)"/><path class="n" d="M303.08,353.352l8-6.022,26.948,1.837-3.967,6.682Z" transform="translate(-216.085 -247.628)"/><path class="j" d="M446.5,341.71l-21.661,3.45,7.05,6.315,23.2-3.892Z" transform="translate(-302.894 -243.621)"/><path class="o" d="M446.5,341.71l-21.661,3.45,7.05,6.315,23.2-3.892Z" transform="translate(-302.894 -243.621)"/><path class="p" d="M461.366,429.21l-4.036.775v-5.962l3.78-.953Z" transform="translate(-326.058 -301.627)"/><path class="p" d="M377.584,435.96V439.9l-4.5-.459V435.96Z" transform="translate(-265.992 -310.817)"/><path class="p" d="M357.121,440.29v2.1l-4.5-.462V440.29Z" transform="translate(-251.405 -313.904)"/><path class="d" d="M456.3,455.182c-3.086,3.947-13.276,1.22-13.276,1.22l-7.572-7.9-1.028-1.071,2.009-3.732s.574.189,1.533.522C443.037,446,458.894,451.861,456.3,455.182Z" transform="translate(-337.06 -332.131)"/><path class="c" d="M455.3,453.182c-3.086,3.947-13.276,1.22-13.276,1.22l-7.572-7.9-1.028-1.071,2.009-3.732s.574.189,1.533.522C442.037,444,457.894,449.861,455.3,453.182Z" transform="translate(-336.347 -330.705)"/><path class="d" d="M436.922,442.222a16.971,16.971,0,0,1-2.515,4.28l-1.028-1.071,2.009-3.732S435.966,441.889,436.922,442.222Z" transform="translate(-336.318 -330.705)"/><path class="e" d="M339.485,287.878s-7.535,2.87-7.607,10.908a132.049,132.049,0,0,0,.861,15.5s-2.153,11.984,3.947,15.429,11.769,6.315,11.769,6.315,9.745,1.579,10.942,2.081,5.356-5.956,4.71-7.033-9.518-3.732-10.572-5.526a9.559,9.559,0,0,0-3.648-3s-2.647-1.806-2.753-3.312a6.782,6.782,0,0,1,.9-3.229c.221-.646,1.022-6.961,1.022-6.961S353.335,286.643,339.485,287.878Z" transform="translate(-263.952 -221.002)"/><path class="d" d="M346.923,380.7s-10.19,1.148-9.4,4.736A21.438,21.438,0,0,1,346.923,380.7Z" transform="translate(-267.945 -287.215)"/><path class="d" d="M358.329,385.7s-5.784,4.234-4.722,4.521S358.329,385.7,358.329,385.7Z" transform="translate(-279.351 -290.78)"/><path class="d" d="M376.888,391.7s-1.651,2.968-.718,2.813S376.888,391.7,376.888,391.7Z" transform="translate(-295.327 -295.058)"/><path class="j" d="M724.816,167.385s-10.908-.657-9.633,7a1.867,1.867,0,0,0,.97,1.966s.02-.574,1.12-.376a5.026,5.026,0,0,0,1.185.057,2.46,2.46,0,0,0,1.453-.6h0s3.068-1.266,4.263-6.283c0,0,.884-1.1.861-1.378l-1.843.789a3.3,3.3,0,0,1,.132,2.434s-.057-2.385-.413-2.331c-.072,0-.956.462-.956.462s1.082,2.314.264,4c0,0,.31-2.853-.6-3.832l-1.3.758s1.266,2.391.408,4.343c0,0,.221-2.994-.68-4.159l-1.177.916s1.191,2.36.465,3.978c0,0-.095-3.485-.721-3.749a7.1,7.1,0,0,0-1.183,1.28s.812,1.722.307,2.615c0,0-.31-2.322-.574-2.334a7.727,7.727,0,0,0-1.131,2.583,5.587,5.587,0,0,1,.881-2.738,3.074,3.074,0,0,0-1.567.812s.158-1.088,1.82-1.183a7.852,7.852,0,0,1,1.073-1.24,6.73,6.73,0,0,0-2.655.307,3.008,3.008,0,0,1,2.959-.574l1.148-.947a9.9,9.9,0,0,0-3.1.032s1.062-.907,3.413-.247l1.263-.755a11.34,11.34,0,0,0-2.959-.255,4.54,4.54,0,0,1,3.33.052l.9-.4s-1.361-.267-1.757-.31-.419-.152-.419-.152a4.7,4.7,0,0,1,2.552.287A11.265,11.265,0,0,0,724.816,167.385Z" transform="translate(-537.156 -135.121)"/><path class="a" d="M840.276,300.725s-10.908-.657-9.633,7a1.867,1.867,0,0,0,.97,1.966s.02-.574,1.122-.376a5.022,5.022,0,0,0,1.185.057,2.457,2.457,0,0,0,1.435-.6h0s3.071-1.269,4.266-6.286c0,0,.881-1.094.847-1.375l-1.843.786a3.313,3.313,0,0,1,.135,2.434s-.06-2.385-.413-2.331c-.072,0-.959.462-.959.462s1.085,2.316.267,4c0,0,.31-2.853-.606-3.832l-1.283.749s1.266,2.391.408,4.343c0,0,.221-2.994-.68-4.159l-1.174.919s1.188,2.357.465,3.976c0,0-.095-3.485-.72-3.749a7.2,7.2,0,0,0-1.186,1.28s.815,1.722.31,2.615c0,0-.31-2.322-.574-2.334a7.727,7.727,0,0,0-1.131,2.583,5.605,5.605,0,0,1,.884-2.738,3.088,3.088,0,0,0-1.57.812s.161-1.088,1.823-1.183a7.169,7.169,0,0,1,1.074-1.24,6.731,6.731,0,0,0-2.655.307s.881-1.025,2.956-.56l1.148-.947a9.908,9.908,0,0,0-3.1.032s1.062-.907,3.413-.247l1.263-.755a11.5,11.5,0,0,0-2.962-.255,4.55,4.55,0,0,1,3.333.052l.9-.4s-1.361-.267-1.76-.31-.419-.152-.419-.152a4.7,4.7,0,0,1,2.555.287A11.587,11.587,0,0,0,840.276,300.725Z" transform="translate(-619.474 -230.187)"/><path class="a" d="M615.119,250.293s2.512-10.647-5.25-10.684a1.864,1.864,0,0,0-2.1.62s.554.118.178,1.168a5.117,5.117,0,0,0-.258,1.148,2.466,2.466,0,0,0,.342,1.53h0s.726,3.244,5.454,5.276c0,0,.93,1.056,1.211,1.068l-.459-1.949a3.3,3.3,0,0,1-2.423-.287s2.362.347,2.365,0c0-.072-.287-1.022-.287-1.022s-2.466.672-3.987-.422c0,0,2.758.792,3.881.06l-.517-1.412s-2.583.841-4.352-.339c0,0,2.914.729,4.217.04l-.7-1.315s-2.526.769-4-.221c0,0,3.445.5,3.818-.069a7.128,7.128,0,0,0-1.059-1.386s-1.826.511-2.629-.141c0,0,2.339.089,2.394-.158a7.739,7.739,0,0,0-2.362-1.559,5.627,5.627,0,0,1,2.552,1.338,3.1,3.1,0,0,0-.534-1.685s1.045.344.861,2.009a7.151,7.151,0,0,1,1.036,1.269,6.751,6.751,0,0,0,.149-2.67s.861,1.045.049,3.011l.735,1.306a9.524,9.524,0,0,0,.5-3.06s.715,1.2-.339,3.4l.531,1.375a11.494,11.494,0,0,0,.755-2.87,4.537,4.537,0,0,1-.62,3.275l.247.959s.494-1.295.6-1.679.221-.388.221-.388a4.7,4.7,0,0,1-.715,2.469A11.4,11.4,0,0,0,615.119,250.293Z" transform="translate(-460.581 -186.549)"/><path class="a" d="M519.567,282.881s-8.761-6.553-11.892.545a1.868,1.868,0,0,0-.27,2.176s.327-.462,1.148.3a5.023,5.023,0,0,0,.959.7,2.463,2.463,0,0,0,1.541.287h0s3.261.629,7.015-2.9c0,0,1.341-.431,1.467-.683l-1.978-.347a3.316,3.316,0,0,1-1.226,2.107s1.26-2.027.933-2.173c-.066-.032-1.053-.144-1.053-.144s-.367,2.532-1.975,3.488c0,0,1.828-2.213,1.6-3.534l-1.5-.08s-.255,2.7-2.047,3.855c0,0,1.828-2.38,1.722-3.849l-1.487.121s-.3,2.621-1.8,3.574c0,0,1.834-2.962,1.458-3.525a7.217,7.217,0,0,0-1.694.416s-.261,1.877-1.18,2.354c0,0,1.019-2.11.812-2.256a7.717,7.717,0,0,0-2.371,1.541,5.606,5.606,0,0,1,2.245-1.8,3.092,3.092,0,0,0-1.757-.184s.729-.821,2.17.014a7.246,7.246,0,0,1,1.579-.445,6.716,6.716,0,0,0-2.388-1.2,2.989,2.989,0,0,1,2.781,1.148l1.49-.152a9.833,9.833,0,0,0-2.606-1.676s1.386-.175,2.985,1.668l1.47.066a11.461,11.461,0,0,0-2.331-1.843,4.539,4.539,0,0,1,2.753,1.874l.979.158s-.99-.97-1.3-1.223-.267-.359-.267-.359a4.717,4.717,0,0,1,1.978,1.642A11.6,11.6,0,0,0,519.567,282.881Z" transform="translate(-388.917 -215.509)"/><path class="a" d="M621.177,70.768s-8.761-6.556-11.892.545a1.868,1.868,0,0,0-.27,2.176s.327-.462,1.148.3a5.106,5.106,0,0,0,.962.7,2.46,2.46,0,0,0,1.541.287h0s3.261.629,7.015-2.908c0,0,1.341-.428,1.464-.683l-1.978-.342a3.3,3.3,0,0,1-1.226,2.107s1.263-2.027.936-2.173c-.066-.032-1.053-.144-1.053-.144s-.379,2.537-1.986,3.488c0,0,1.826-2.213,1.6-3.534l-1.5-.08s-.258,2.7-2.047,3.852c0,0,1.828-2.38,1.722-3.849l-1.484.121s-.3,2.624-1.8,3.577c0,0,1.837-2.962,1.461-3.525a7.216,7.216,0,0,0-1.694.416s-.261,1.877-1.18,2.354c0,0,1.019-2.11.812-2.259a7.745,7.745,0,0,0-2.371,1.544,5.58,5.58,0,0,1,2.245-1.8,3.071,3.071,0,0,0-1.76-.184s.732-.821,2.173.014a7.091,7.091,0,0,1,1.579-.445,6.756,6.756,0,0,0-2.388-1.206,2.993,2.993,0,0,1,2.779,1.148l1.49-.152a9.842,9.842,0,0,0-2.606-1.679s1.386-.172,2.988,1.671l1.47.063a11.343,11.343,0,0,0-2.334-1.84,4.54,4.54,0,0,1,2.756,1.874l.976.158s-.993-.959-1.3-1.206-.267-.356-.267-.356a4.707,4.707,0,0,1,1.978,1.642A12.392,12.392,0,0,0,621.177,70.768Z" transform="translate(-461.361 -64.281)"/><path class="a" d="M739.9,88.566S736.4,78.2,729.8,82.274a1.887,1.887,0,0,0-1.455,1.639s.531-.2.766.9a5.168,5.168,0,0,0,.393,1.122,2.486,2.486,0,0,0,1.1,1.117h0s2.331,2.368,7.429,1.584c0,0,1.346.408,1.593.267l-1.435-1.409a3.3,3.3,0,0,1-2.2,1.039s2.19-.953,2.009-1.26c-.037-.06-.787-.712-.787-.712s-1.739,1.874-3.605,1.751c0,0,2.759-.787,3.321-2.009l-1.188-.916s-1.74,2.072-3.872,2.009c0,0,2.87-.921,3.6-2.2l-1.292-.743s-1.722,1.989-3.508,1.926c0,0,3.192-1.4,3.2-2.075a7.177,7.177,0,0,0-1.63-.617s-1.28,1.4-2.3,1.272c0,0,2.032-1.163,1.946-1.4a7.7,7.7,0,0,0-2.827-.072,5.594,5.594,0,0,1,2.87-.215,3.1,3.1,0,0,0-1.346-1.148s1.068-.261,1.783,1.243a7.228,7.228,0,0,1,1.55.528,6.747,6.747,0,0,0-1.283-2.345,2.989,2.989,0,0,1,1.633,2.532l1.315.718a9.69,9.69,0,0,0-1.2-2.87s1.243.643,1.513,3.069l1.177.887a11.412,11.412,0,0,0-.878-2.842,4.545,4.545,0,0,1,1.206,3.109l.715.683s-.264-1.361-.373-1.745-.02-.41-.02-.41a4.733,4.733,0,0,1,.7,2.474A11.441,11.441,0,0,0,739.9,88.566Z" transform="translate(-546.611 -73.775)"/><path class="a" d="M664.08,108.158s-10.879-1.211-9.981,6.507a1.863,1.863,0,0,0,.861,2.009s.049-.574,1.148-.316a5.281,5.281,0,0,0,1.183.118,2.469,2.469,0,0,0,1.478-.525h0s3.132-1.111,4.593-6.062c0,0,.936-1.048.916-1.332l-1.88.695a3.2,3.2,0,0,1,0,2.437s.06-2.385-.287-2.348c-.072,0-.979.413-.979.413s.965,2.368.063,4.019c0,0,.453-2.836-.411-3.858l-1.335.689s1.148,2.454.187,4.36c0,0,.373-2.98-.468-4.188l-1.22.861s1.068,2.414.261,4c0,0,.083-3.485-.528-3.78a7.466,7.466,0,0,0-1.248,1.217s.726,1.751.178,2.626c0,0-.192-2.334-.445-2.357a7.717,7.717,0,0,0-1.263,2.532,5.587,5.587,0,0,1,1.022-2.693,3.089,3.089,0,0,0-1.607.732s.212-1.076,1.877-1.088c0,0,.9-1.122,1.148-1.183a6.748,6.748,0,0,0-2.669.172s.933-.982,2.982-.41l1.209-.887a9.309,9.309,0,0,0-3.109-.155s1.108-.861,3.422-.072l1.3-.692a11.429,11.429,0,0,0-2.945-.4,4.508,4.508,0,0,1,3.324.221l.924-.359s-1.346-.336-1.742-.4-.41-.172-.41-.172a4.721,4.721,0,0,1,2.537.413A11.743,11.743,0,0,0,664.08,108.158Z" transform="translate(-493.643 -92.856)"/><path class="a" d="M995.694,402.328s-10.873-1.211-9.975,6.5a1.863,1.863,0,0,0,.861,2.009s.049-.574,1.148-.319a4.964,4.964,0,0,0,1.183.118,2.449,2.449,0,0,0,1.478-.525h0s3.132-1.111,4.578-6.06c0,0,.936-1.051.916-1.332l-1.88.692a3.209,3.209,0,0,1,0,2.44s.06-2.388-.287-2.348c-.072,0-.979.41-.979.41s.965,2.368.063,4.019c0,0,.453-2.833-.41-3.858l-1.335.692s1.148,2.454.189,4.36c0,0,.37-2.98-.471-4.191l-1.22.861s1.068,2.414.261,3.993c0,0,.083-3.485-.528-3.778a7.574,7.574,0,0,0-1.249,1.217s.729,1.751.178,2.626c0,0-.192-2.334-.445-2.357a7.717,7.717,0,0,0-1.263,2.532,5.589,5.589,0,0,1,1.022-2.693,3.063,3.063,0,0,0-1.607.732s.212-1.079,1.877-1.091c0,0,.907-1.122,1.148-1.18a6.726,6.726,0,0,0-2.669.169s.933-.979,2.985-.408l1.206-.887a9.593,9.593,0,0,0-3.1-.126s1.108-.861,3.422-.075l1.3-.689a11.431,11.431,0,0,0-2.945-.4,4.508,4.508,0,0,1,3.324.221l.924-.362s-1.346-.336-1.742-.4-.411-.172-.411-.172a4.7,4.7,0,0,1,2.538.41A11.244,11.244,0,0,0,995.694,402.328Z" transform="translate(-730.073 -302.586)"/><path class="a" d="M1053.6,437.709s-10.873-1.208-9.975,6.5a1.868,1.868,0,0,0,.861,2.009s.049-.574,1.148-.316a5.068,5.068,0,0,0,1.18.115,2.48,2.48,0,0,0,1.473-.522h0s3.129-1.111,4.575-6.062c0,0,.939-1.048.916-1.332l-1.88.692a3.209,3.209,0,0,1,0,2.44s.06-2.385-.287-2.348c-.072,0-.979.41-.979.41s.965,2.368.063,4.019c0,0,.453-2.833-.41-3.855l-1.335.689s1.148,2.454.19,4.36c0,0,.37-2.98-.471-4.188l-1.22.861s1.068,2.414.264,4c0,0,.08-3.488-.531-3.78a7.578,7.578,0,0,0-1.249,1.217s.729,1.751.178,2.626c0,0-.192-2.334-.445-2.357a7.675,7.675,0,0,0-1.26,2.532,5.6,5.6,0,0,1,1.019-2.692,3.09,3.09,0,0,0-1.608.732s.215-1.079,1.88-1.088c0,0,.9-1.122,1.148-1.183a6.75,6.75,0,0,0-2.67.172s.933-.982,2.985-.411l1.206-.887a9.594,9.594,0,0,0-3.1-.126s1.108-.861,3.422-.072l1.3-.692a11.426,11.426,0,0,0-2.945-.4,4.509,4.509,0,0,1,3.324.221l.924-.359s-1.346-.336-1.74-.4-.413-.172-.413-.172a4.722,4.722,0,0,1,2.537.413A11.351,11.351,0,0,0,1053.6,437.709Z" transform="translate(-771.36 -327.811)"/><path class="a" d="M919.117,133.021s-8.761-6.553-11.892.545a1.868,1.868,0,0,0-.27,2.176s.327-.462,1.148.3a5.027,5.027,0,0,0,.959.7,2.466,2.466,0,0,0,1.542.287h0s3.261.629,7.018-2.9c0,0,1.338-.431,1.464-.683l-1.972-.356a3.316,3.316,0,0,1-1.226,2.107s1.26-2.027.933-2.173c-.066-.032-1.051-.144-1.051-.144s-.37,2.532-1.978,3.488c0,0,1.829-2.213,1.6-3.534l-1.5-.08s-.255,2.7-2.047,3.855c0,0,1.831-2.38,1.722-3.849l-1.487.121s-.287,2.621-1.8,3.574c0,0,1.837-2.962,1.458-3.525a7.218,7.218,0,0,0-1.694.416s-.258,1.877-1.177,2.354c0,0,1.016-2.11.809-2.256a7.715,7.715,0,0,0-2.371,1.541,5.6,5.6,0,0,1,2.245-1.8A3.091,3.091,0,0,0,907.8,133s.732-.821,2.173.014a7.217,7.217,0,0,1,1.576-.445,6.717,6.717,0,0,0-2.388-1.2,2.989,2.989,0,0,1,2.782,1.148l1.49-.152a9.782,9.782,0,0,0-2.606-1.676s1.386-.175,2.985,1.668l1.473.066a11.506,11.506,0,0,0-2.334-1.843,4.531,4.531,0,0,1,2.753,1.874l.979.158s-.99-.97-1.3-1.223-.264-.336-.264-.336a4.719,4.719,0,0,1,1.975,1.642A11.527,11.527,0,0,0,919.117,133.021Z" transform="translate(-673.778 -108.666)"/><path class="a" d="M945.351,285.918s-3.02-10.515-9.811-6.74a1.865,1.865,0,0,0-1.53,1.57s.54-.169.726.93a5.09,5.09,0,0,0,.344,1.148A2.465,2.465,0,0,0,936.131,284h0s2.222,2.469,7.348,1.917c0,0,1.326.465,1.579.339l-1.358-1.475a3.3,3.3,0,0,1-2.248.942s2.228-.861,2.055-1.168c-.035-.063-.752-.749-.752-.749s-1.82,1.8-3.68,1.587c0,0,2.793-.66,3.407-1.849l-1.148-.97s-1.831,1.992-3.958,1.837c0,0,2.893-.8,3.691-2.032l-1.257-.8s-1.823,1.909-3.591,1.765c0,0,3.252-1.254,3.292-1.929a7.168,7.168,0,0,0-1.6-.689s-1.341,1.338-2.359,1.165c0,0,2.084-1.071,2.009-1.312a7.752,7.752,0,0,0-2.822-.2,5.6,5.6,0,0,1,2.87-.083,3.08,3.08,0,0,0-1.292-1.206s1.079-.215,1.722,1.32a7.162,7.162,0,0,1,1.524.6,6.712,6.712,0,0,0-1.177-2.4s1.263.488,1.518,2.6l1.28.778a9.542,9.542,0,0,0-1.068-2.911s1.211.7,1.375,3.132l1.148.939a11.381,11.381,0,0,0-.749-2.87,4.535,4.535,0,0,1,1.065,3.158l.683.718s-.2-1.372-.287-1.762,0-.445,0-.445a4.7,4.7,0,0,1,.588,2.5A11.4,11.4,0,0,0,945.351,285.918Z" transform="translate(-693.244 -214.252)"/><path class="a" d="M708.394,373.639s-5.864-9.237-11.31-3.709a1.857,1.857,0,0,0-1.028,1.938s.474-.316.962.689a4.918,4.918,0,0,0,.649.993,2.452,2.452,0,0,0,1.335.827h0s2.827,1.745,7.592-.23c0,0,1.4.075,1.61-.118L706.482,373a3.3,3.3,0,0,1-1.895,1.536s1.9-1.435,1.645-1.7c-.049-.052-.933-.505-.933-.505s-1.243,2.233-3.086,2.558c0,0,2.494-1.421,2.753-2.736l-1.375-.606s-1.2,2.426-3.281,2.87c0,0,2.555-1.576,2.971-2.988l-1.435-.413s-1.211,2.345-2.948,2.7c0,0,2.767-2.118,2.615-2.779a7.13,7.13,0,0,0-1.722-.21s-.91,1.662-1.938,1.783c0,0,1.7-1.613,1.559-1.826a7.734,7.734,0,0,0-2.764.6,5.587,5.587,0,0,1,2.738-.89,3.08,3.08,0,0,0-1.576-.8s.973-.508,2.009.784a7.091,7.091,0,0,1,1.633.144,6.608,6.608,0,0,0-1.806-1.972s1.349.115,2.187,2.07l1.45.385a9.6,9.6,0,0,0-1.843-2.492s1.358.327,2.2,2.621l1.355.574a11.439,11.439,0,0,0-1.53-2.549,4.522,4.522,0,0,1,1.909,2.73l.861.5s-.574-1.26-.778-1.607-.123-.428-.123-.428a4.708,4.708,0,0,1,1.266,2.236A11.671,11.671,0,0,0,708.394,373.639Z" transform="translate(-523.576 -278.279)"/><path class="j" d="M842.827,208.642s-5.577-9.412-11.195-4.056a1.866,1.866,0,0,0-1.085,1.906s.479-.3.939.715a4.96,4.96,0,0,0,.617,1.016,2.437,2.437,0,0,0,1.309.861h0s2.77,1.831,7.6,0c0,0,1.4.118,1.613-.069l-1.685-1.085a3.3,3.3,0,0,1-1.94,1.475s1.943-1.386,1.7-1.648c-.052-.055-.918-.537-.918-.537s-1.312,2.2-3.158,2.463c0,0,2.537-1.343,2.833-2.647L838.1,206.4s-1.272,2.391-3.37,2.773c0,0,2.6-1.5,3.063-2.893l-1.418-.459s-1.286,2.3-3.031,2.612c0,0,2.83-2.032,2.7-2.7a7.09,7.09,0,0,0-1.722-.264s-.962,1.633-1.992,1.722c0,0,1.748-1.556,1.616-1.774a7.727,7.727,0,0,0-2.782.517,5.6,5.6,0,0,1,2.764-.8,3.085,3.085,0,0,0-1.553-.844s.99-.479,2.009.844a7.271,7.271,0,0,1,1.628.2,6.866,6.866,0,0,0-1.742-2.027s1.343.155,2.121,2.136l1.435.431a9.543,9.543,0,0,0-1.765-2.549s1.349.37,2.119,2.687l1.335.623a11.534,11.534,0,0,0-1.435-2.583,4.54,4.54,0,0,1,1.826,2.787l.841.522s-.54-1.277-.729-1.63-.109-.431-.109-.431a4.717,4.717,0,0,1,1.2,2.273A11.116,11.116,0,0,0,842.827,208.642Z" transform="translate(-619.468 -160.479)"/><path class="j" d="M727.476,268.055s.287-10.936-7.311-9.4a1.871,1.871,0,0,0-1.935,1.036s.574,0,.413,1.105a5.033,5.033,0,0,0-.017,1.188,2.454,2.454,0,0,0,.646,1.435h0s1.369,3.025,6.424,4.053c0,0,1.122.847,1.4.8l-.861-1.814a3.313,3.313,0,0,1-2.428.215s2.382-.141,2.316-.491c0-.072-.494-.944-.494-.944s-2.279,1.163-3.987.4c0,0,2.87.215,3.809-.729l-.8-1.272s-2.348,1.343-4.329.551c0,0,3,.121,4.136-.818l-.956-1.148s-2.316,1.269-3.958.6c0,0,3.479-.21,3.732-.844a7.444,7.444,0,0,0-1.32-1.148s-1.682.861-2.6.4c0,0,2.3-.385,2.311-.64a7.7,7.7,0,0,0-2.629-1.045,5.588,5.588,0,0,1,2.77.792,3.086,3.086,0,0,0-.861-1.541s1.094.123,1.243,1.78a7.132,7.132,0,0,1,1.274,1.033,6.712,6.712,0,0,0-.4-2.644s1.056.847.66,2.936l.985,1.131a9.611,9.611,0,0,0-.135-3.1s.942,1.03.362,3.4l.8,1.237a11.445,11.445,0,0,0,.158-2.968,4.555,4.555,0,0,1,.057,3.333l.436.89s.221-1.369.25-1.768.138-.425.138-.425a4.713,4.713,0,0,1-.2,2.563A10.943,10.943,0,0,0,727.476,268.055Z" transform="translate(-539.403 -200.1)"/><ellipse class="a" cx="7.73" cy="1.306" rx="7.73" ry="1.306" transform="translate(192.904 204.308)"/><ellipse class="a" cx="7.73" cy="1.306" rx="7.73" ry="1.306" transform="translate(164.724 224.137)"/><ellipse class="a" cx="7.73" cy="1.306" rx="7.73" ry="1.306" transform="translate(19.002 213.978)"/><ellipse class="a" cx="7.73" cy="1.306" rx="7.73" ry="1.306" transform="translate(223.357 222.831)"/><ellipse class="j" cx="11.542" cy="1.952" rx="11.542" ry="1.952" transform="translate(227.593 205.614)"/><path class="j" d="M918.482,753.8a3.333,3.333,0,0,0,1.1-1.659,1.475,1.475,0,0,0-.767-1.691,2.167,2.167,0,0,0-2.035.712,2.727,2.727,0,0,1-1.975.956,3.014,3.014,0,0,0,.93-2.816,1.179,1.179,0,0,0-.258-.574c-.393-.419-1.1-.238-1.573.092-1.493,1.051-1.909,3.077-1.917,4.9a9.218,9.218,0,0,1-.026-2.009,2.062,2.062,0,0,0-.761-1.785,2.27,2.27,0,0,0-1.148-.287,2.4,2.4,0,0,0-1.877.534,1.85,1.85,0,0,0,.072,2.3,7.423,7.423,0,0,0,1.943,1.556,4.342,4.342,0,0,1,1.389,1.323,1.35,1.35,0,0,1,.1.235h4.208A11.611,11.611,0,0,0,918.482,753.8Z" transform="translate(-674.561 -549.425)"/><path class="q" d="M170.29,777.953s4.406-.135,5.741-1.082,6.783-2.075,7.113-.557,6.625,7.546,1.648,7.587-11.565-.775-12.891-1.584S170.29,777.953,170.29,777.953Z" transform="translate(-148.747 -568.74)"/><path class="r" d="M184.875,789.275c-4.977.04-11.565-.775-12.891-1.585-1.01-.614-1.412-2.822-1.547-3.841h-.146s.287,3.557,1.6,4.363,7.914,1.625,12.891,1.585c1.435,0,1.932-.522,1.906-1.28C186.491,788.979,185.943,789.267,184.875,789.275Z" transform="translate(-148.747 -574.642)"/></g></svg>