<svg xmlns="http://www.w3.org/2000/svg" width="42.046" height="20" viewBox="0 0 42.046 20"><defs><style>.a{fill:#3498e5;}</style></defs><g transform="translate(0.002 -148.967)"><g transform="translate(-0.002 148.967)"><path class="a" d="M39.1,160.342c.26-1.063,1.025-1.7,2.516-2.26.125-.968-.6-1.226-1.277-1.507-2.232-.925-4.432-1.94-6.712-2.728a38.881,38.881,0,0,0-4.953-1.149.891.891,0,0,1-.774-.681,15.281,15.281,0,0,0-1.442-2.291c-.618.591-.65-.328-1.121-.42l-.312.642-.672-.982-.546,1.1-.884-.7-.336,1.079-.736-.429-.264.971-.768-.423c-.421.966-.421.966-1.309.458-.071.164-.131.326-.212.478-.072.134-.167.256-.275.42l-.814-.382a1.382,1.382,0,0,1-1.822-.042c-.951-.813-2.1-.505-3.11-.3a6.677,6.677,0,0,0-3.65,2.7.976.976,0,0,0,.128,1.374c.194.207.434.37.837.707-1.711-.023-3.234.151-4.443-1.124-1.135-1.2-2.291-2.372-3.448-3.547a2.332,2.332,0,0,0-1.928-.762,47.264,47.264,0,0,0-.445,13.926,3.816,3.816,0,0,0,2.376-.9,32.548,32.548,0,0,0,2.934-2.333,3.9,3.9,0,0,1,4.345-.826,7.74,7.74,0,0,1,1.674.774c-.391,0-.781,0-1.172,0-.761-.008-1.036.273-.923,1.013a12.672,12.672,0,0,0,.374,1.873,1.6,1.6,0,0,0,2.564.979,20.5,20.5,0,0,1,2.729-1.424l-.216.628c.084-.026.17-.026.212-.069a3.041,3.041,0,0,1,3.07-.773,51.114,51.114,0,0,0,6.027.517c.314.023.631,0,1.229,0-.992.655-.692,1.131-.255,1.775a13.788,13.788,0,0,1,.975,2.3,8.588,8.588,0,0,0,.592.956,5.38,5.38,0,0,0,.721-1.133,28.6,28.6,0,0,0,.836-3.3c.094-.53.222-.8.782-.859,1.526-.147,3.054-.292,4.571-.51,1.178-.169,2.35-.405,3.506-.687,1.211-.295,2.4-.675,3.6-1.024,1.279-.372,1.439-.827.777-1.758Z" transform="translate(0.002 -148.967)"/></g></g></svg>