<?xml version="1.0" encoding="UTF-8" standalone="no"?>
<!-- Generator: Adobe Illustrator 20.1.0, SVG Export Plug-In . SVG Version: 6.00 Build 0)  -->

<svg
   xmlns:dc="http://purl.org/dc/elements/1.1/"
   xmlns:cc="http://creativecommons.org/ns#"
   xmlns:rdf="http://www.w3.org/1999/02/22-rdf-syntax-ns#"
   xmlns:svg="http://www.w3.org/2000/svg"
   xmlns="http://www.w3.org/2000/svg"
   xmlns:sodipodi="http://sodipodi.sourceforge.net/DTD/sodipodi-0.dtd"
   xmlns:inkscape="http://www.inkscape.org/namespaces/inkscape"
   version="1.1"
   id="Layer_1"
   x="0px"
   y="0px"
   viewBox="0 0 37 141.8"
   style="enable-background:new 0 0 37 141.8;"
   xml:space="preserve"
   inkscape:version="0.48.4 r9939"
   width="100%"
   height="100%"
   sodipodi:docname="Fish_Hook_Icon-01-white.svg"><metadata
   id="metadata9"><rdf:RDF><cc:Work
       rdf:about=""><dc:format>image/svg+xml</dc:format><dc:type
         rdf:resource="http://purl.org/dc/dcmitype/StillImage" /><dc:title></dc:title></cc:Work></rdf:RDF></metadata><defs
   id="defs7" /><sodipodi:namedview
   pagecolor="#ffffff"
   bordercolor="#666666"
   borderopacity="1"
   objecttolerance="10"
   gridtolerance="10"
   guidetolerance="10"
   inkscape:pageopacity="0"
   inkscape:pageshadow="2"
   inkscape:window-width="640"
   inkscape:window-height="480"
   id="namedview5"
   showgrid="false"
   inkscape:zoom="1.6643159"
   inkscape:cx="18.5"
   inkscape:cy="70.899998"
   inkscape:window-x="2126"
   inkscape:window-y="90"
   inkscape:window-maximized="0"
   inkscape:current-layer="Layer_1" />
<path
   d="M 0,81.4 C 0,79.4 0.7,77.5 2.1,76 3.3,74.8 4.8,74 6.5,73.7 V 0 h 2.1 v 73.8 c 3.6,0.5 6.4,3.6 6.5,7.3 0,2 -0.7,3.9 -2.1,5.4 -0.9,1 -2.1,1.6 -3.3,2 l 0,37.6 c 0,6.3 5.1,11.5 11.5,11.5 6.4,0 11.5,-5.2 11.5,-11.6 0,-0.8 -0.1,-1.7 -0.3,-2.5 l -4.4,0 3.7,-9.3 c 3.3,3 5.3,7.3 5.3,11.8 0,8.7 -7.1,15.8 -15.8,15.8 -8.7,0 -15.8,-7.1 -15.8,-15.8 l 0,-37.6 C 2.4,87.5 0.1,84.7 0,81.4 z m 7.6,3.1 0,0 c 1,0 1.8,-0.4 2.4,-1 0.6,-0.6 0.9,-1.5 0.9,-2.4 0,-1.8 -1.5,-3.2 -3.4,-3.2 h 0 c -0.9,0 -1.7,0.4 -2.3,1 -0.6,0.6 -0.9,1.5 -0.9,2.4 0,1.8 1.5,3.2 3.3,3.2 z"
   id="path3"
   style="fill:#ffffff"
   inkscape:connector-curvature="0" />
</svg>