<svg xmlns="http://www.w3.org/2000/svg" width="68" height="48" viewBox="0 0 68 48">
    <defs>
        <style>
            .cls-1{fill:#fff}.cls-2{fill:rgba(255,255,255,0)}
        </style>
    </defs>
    <g id="logo" transform="translate(-136 -17.34)">
        <g id="Group_70" data-name="Group 70" transform="translate(0 5.34)">
            <path id="Path_322" d="M380.227 4520.108c-6.509-10.912-16.21-12.121-20.5-12.075h-38.206v48h38.208c4.287.046 13.989-1.163 20.5-12.074 6.38-10.7 8.806-11.924 8.806-11.924s-2.428-1.235-8.808-11.927zm-1.362 8.522a1.922 1.922 0 1 1 1.922-1.922 1.921 1.921 0 0 1-1.923 1.922z" data-name="Path 322" transform="translate(-185.521 -4496.033)"/>
            <g id="Group_15" data-name="Group 15" transform="translate(139.053 17.869)">
                <g id="Group_10" data-name="Group 10">
                    <path id="Path_323" d="M350.507 4555.218c0-.82-.252-1.449-1.56-1.449-.961 0-1.308.442-1.308.866 0 .5.441.694 1.465 1.119l1.639.694c1.733.724 2.631 1.8 2.631 3.276 0 1.67-1.245 3.451-4.538 3.451-2.6 0-4.68-1.1-4.68-3.8v-.269h2.726c.031.63.158 1.844 2.017 1.844.552 0 1.465-.158 1.465-.914 0-.536-.2-.662-1.26-1.136l-1.828-.818c-1.481-.677-2.6-1.514-2.6-3.12 0-2.127 1.843-3.419 4.239-3.419 2.584 0 4.317.835 4.317 3.467v.2z" class="cls-1" data-name="Path 323" transform="translate(-344.157 -4551.547)"/>
                    <path id="Path_324" d="M427.126 4557.651v2.27h-4.648v2.332h5.31v2.284h-8.272v-11.123h8.067v2.269h-5.1v1.969z" class="cls-1" data-name="Path 324" transform="translate(-409.351 -4553.162)"/>
                    <path id="Path_325" d="M490.321 4553.414l4.175 11.123h-3.056l-.741-2.205h-3.577l-.725 2.205h-3.057l4.16-11.123zm-1.4 2.931l-1.071 3.766h2.127z" class="cls-1" data-name="Path 325" transform="translate(-464.569 -4553.162)"/>
                </g>
                <g id="Group_12" data-name="Group 12" transform="translate(.788 12.317)">
                    <g id="Group_11" data-name="Group 11">
                        <path id="Path_326" d="M357.594 4648.978v2.27h-4.648v4.617H350v-11.126h8.052v2.271h-5.105v1.969z" class="cls-1" data-name="Path 326" transform="translate(-349.999 -4644.486)"/>
                        <path id="Path_327" d="M414.525 4642.873a5.464 5.464 0 0 1 5.625 5.813c0 3.1-1.812 5.814-5.641 5.814-2.883 0-5.625-1.717-5.625-5.814 0-3.277 2.116-5.813 5.641-5.813zm0 9.343c2 0 2.553-1.954 2.553-3.483s-.457-3.576-2.584-3.576c-2.19 0-2.553 2.3-2.553 3.529 0 1.528.488 3.53 2.584 3.53z" class="cls-1" data-name="Path 327" transform="translate(-400.942 -4642.873)"/>
                        <path id="Path_328" d="M500.516 4642.873a5.464 5.464 0 0 1 5.625 5.813c0 3.1-1.812 5.814-5.641 5.814-2.884 0-5.625-1.717-5.625-5.814 0-3.277 2.112-5.813 5.641-5.813zm0 9.343c2 0 2.552-1.954 2.552-3.483s-.457-3.576-2.584-3.576c-2.19 0-2.553 2.3-2.553 3.529.001 1.528.489 3.53 2.585 3.53z" class="cls-1" data-name="Path 328" transform="translate(-475.336 -4642.873)"/>
                        <path id="Path_329" d="M590.1 4644.738c4.633 0 6.161 2.775 6.161 5.563 0 4.081-3.23 5.563-5.688 5.563h-4.333v-11.126zm.126 8.84c1.859 0 2.978-.836 2.978-3.278 0-1.954-.8-3.292-2.789-3.292H589.2v6.57z" class="cls-1" data-name="Path 329" transform="translate(-554.38 -4644.486)"/>
                    </g>
                </g>
                <g id="Group_14" data-name="Group 14" transform="translate(0 24.634)">
                    <g id="Group_13" data-name="Group 13">
                        <path id="Path_330" d="M350.507 4737.869c0-.82-.252-1.449-1.56-1.449-.961 0-1.308.44-1.308.866 0 .5.441.693 1.465 1.118l1.639.693c1.733.726 2.631 1.8 2.631 3.278 0 1.669-1.245 3.451-4.538 3.451-2.6 0-4.68-1.1-4.68-3.8v-.269h2.726c.031.63.158 1.844 2.017 1.844.552 0 1.465-.157 1.465-.914 0-.535-.2-.661-1.26-1.135l-1.828-.818c-1.481-.679-2.6-1.514-2.6-3.121 0-2.127 1.843-3.419 4.239-3.419 2.584 0 4.317.836 4.317 3.467v.205z" class="cls-1" data-name="Path 330" transform="translate(-344.157 -4734.197)"/>
                        <path id="Path_331" d="M420.016 4734.2a5.464 5.464 0 0 1 5.625 5.814c0 3.1-1.812 5.815-5.641 5.815-2.883 0-5.625-1.718-5.625-5.815 0-3.28 2.112-5.814 5.641-5.814zm0 9.344c2 0 2.553-1.954 2.553-3.483s-.457-3.577-2.584-3.577c-2.19 0-2.553 2.3-2.553 3.53 0 1.527.488 3.527 2.584 3.527z" class="cls-1" data-name="Path 331" transform="translate(-404.905 -4734.197)"/>
                        <path id="Path_332" d="M514.671 4736.063v7c0 2.68-1.639 4.382-4.932 4.382-3.356 0-4.932-1.765-4.932-4.3v-7.076h2.947v7.044a1.813 1.813 0 0 0 2.017 2.049c1.418 0 1.954-.914 1.954-2.112v-6.981z" class="cls-1" data-name="Path 332" transform="translate(-483.14 -4735.811)"/>
                        <path id="Path_333" d="M594.757 4745.574l-.725-1.025a5.314 5.314 0 0 1-3.514 1.277c-3.23 0-5.562-2.285-5.562-5.815 0-3.308 2.1-5.814 5.641-5.814 3.261 0 5.625 2.175 5.625 5.814a6.63 6.63 0 0 1-.536 2.742l2.237 2.821zm-4.144-2.033c2.19 0 2.553-2.206 2.553-3.483 0-1.527-.457-3.577-2.584-3.577-1.844 0-2.553 1.749-2.553 3.53 0 1.623.598 3.53 2.584 3.53z" class="cls-1" data-name="Path 333" transform="translate(-552.479 -4734.197)"/>
                    </g>
                </g>
            </g>
        </g>
        <path id="Rectangle_751" d="M0 0h68v48H0z" class="cls-2" data-name="Rectangle 751" transform="translate(136 17.34)"/>
    </g>
</svg>
